<mxfile host="Electron" modified="2023-12-02T05:04:51.214Z" agent="Mozilla/5.0 (Windows NT 10.0; Win64; x64) AppleWebKit/537.36 (KHTML, like Gecko) draw.io/21.7.5 Chrome/114.0.5735.289 Electron/25.8.1 Safari/537.36" etag="IPacjlltdnmnxyvddzP9" version="21.7.5" type="device">
  <diagram name="Página-1" id="yDxwRzEWezrK-5oTMrBN">
    <mxGraphModel dx="4204" dy="2409" grid="1" gridSize="10" guides="1" tooltips="1" connect="1" arrows="1" fold="1" page="1" pageScale="1" pageWidth="827" pageHeight="1169" math="0" shadow="0">
      <root>
        <mxCell id="0" />
        <mxCell id="1" parent="0" />
        <mxCell id="GXKxdbZW9Hp5cg-U_LQ1-1" value="Trabajador" style="rounded=0;whiteSpace=wrap;html=1;" vertex="1" parent="1">
          <mxGeometry x="-570" y="-390" width="80" height="40" as="geometry" />
        </mxCell>
        <mxCell id="GXKxdbZW9Hp5cg-U_LQ1-2" style="rounded=0;orthogonalLoop=1;jettySize=auto;html=1;exitX=1;exitY=0;exitDx=0;exitDy=0;entryX=0.25;entryY=1;entryDx=0;entryDy=0;endArrow=none;endFill=0;" edge="1" parent="1" source="GXKxdbZW9Hp5cg-U_LQ1-170" target="GXKxdbZW9Hp5cg-U_LQ1-1">
          <mxGeometry relative="1" as="geometry">
            <mxPoint x="-573.7867965644032" y="-465.85786437626894" as="sourcePoint" />
          </mxGeometry>
        </mxCell>
        <mxCell id="GXKxdbZW9Hp5cg-U_LQ1-3" style="rounded=0;orthogonalLoop=1;jettySize=auto;html=1;exitX=1;exitY=0;exitDx=0;exitDy=0;entryX=0;entryY=0.5;entryDx=0;entryDy=0;endArrow=none;endFill=0;" edge="1" parent="1" source="GXKxdbZW9Hp5cg-U_LQ1-7" target="GXKxdbZW9Hp5cg-U_LQ1-8">
          <mxGeometry relative="1" as="geometry" />
        </mxCell>
        <mxCell id="GXKxdbZW9Hp5cg-U_LQ1-4" style="rounded=0;orthogonalLoop=1;jettySize=auto;html=1;exitX=1;exitY=0.5;exitDx=0;exitDy=0;entryX=0;entryY=0.5;entryDx=0;entryDy=0;endArrow=none;endFill=0;" edge="1" parent="1" source="GXKxdbZW9Hp5cg-U_LQ1-7" target="GXKxdbZW9Hp5cg-U_LQ1-9">
          <mxGeometry relative="1" as="geometry" />
        </mxCell>
        <mxCell id="GXKxdbZW9Hp5cg-U_LQ1-5" style="rounded=0;orthogonalLoop=1;jettySize=auto;html=1;exitX=1;exitY=1;exitDx=0;exitDy=0;entryX=0;entryY=0.5;entryDx=0;entryDy=0;endArrow=none;endFill=0;" edge="1" parent="1" source="GXKxdbZW9Hp5cg-U_LQ1-7" target="GXKxdbZW9Hp5cg-U_LQ1-10">
          <mxGeometry relative="1" as="geometry" />
        </mxCell>
        <mxCell id="GXKxdbZW9Hp5cg-U_LQ1-6" style="rounded=0;orthogonalLoop=1;jettySize=auto;html=1;exitX=0;exitY=1;exitDx=0;exitDy=0;entryX=0.75;entryY=0;entryDx=0;entryDy=0;endArrow=none;endFill=0;" edge="1" parent="1" source="GXKxdbZW9Hp5cg-U_LQ1-7" target="GXKxdbZW9Hp5cg-U_LQ1-1">
          <mxGeometry relative="1" as="geometry" />
        </mxCell>
        <mxCell id="GXKxdbZW9Hp5cg-U_LQ1-7" value="NombreC." style="ellipse;whiteSpace=wrap;html=1;" vertex="1" parent="1">
          <mxGeometry x="-490" y="-490" width="80" height="40" as="geometry" />
        </mxCell>
        <mxCell id="GXKxdbZW9Hp5cg-U_LQ1-8" value="Nombre" style="ellipse;whiteSpace=wrap;html=1;" vertex="1" parent="1">
          <mxGeometry x="-345" y="-580" width="60" height="40" as="geometry" />
        </mxCell>
        <mxCell id="GXKxdbZW9Hp5cg-U_LQ1-9" value="&lt;font style=&quot;font-size: 11px;&quot;&gt;ApellidoP&lt;/font&gt;" style="ellipse;whiteSpace=wrap;html=1;" vertex="1" parent="1">
          <mxGeometry x="-345" y="-530" width="60" height="40" as="geometry" />
        </mxCell>
        <mxCell id="GXKxdbZW9Hp5cg-U_LQ1-10" value="&lt;font style=&quot;font-size: 11px;&quot;&gt;ApellidoM&lt;/font&gt;" style="ellipse;whiteSpace=wrap;html=1;" vertex="1" parent="1">
          <mxGeometry x="-345" y="-480" width="60" height="40" as="geometry" />
        </mxCell>
        <mxCell id="GXKxdbZW9Hp5cg-U_LQ1-11" style="edgeStyle=orthogonalEdgeStyle;rounded=0;orthogonalLoop=1;jettySize=auto;html=1;exitX=0.5;exitY=1;exitDx=0;exitDy=0;" edge="1" parent="1">
          <mxGeometry relative="1" as="geometry">
            <mxPoint x="-315" y="-550" as="sourcePoint" />
            <mxPoint x="-315" y="-550" as="targetPoint" />
          </mxGeometry>
        </mxCell>
        <mxCell id="GXKxdbZW9Hp5cg-U_LQ1-12" style="rounded=0;orthogonalLoop=1;jettySize=auto;html=1;exitX=0.5;exitY=1;exitDx=0;exitDy=0;entryX=0.5;entryY=0;entryDx=0;entryDy=0;endArrow=none;endFill=0;" edge="1" parent="1" source="GXKxdbZW9Hp5cg-U_LQ1-13" target="GXKxdbZW9Hp5cg-U_LQ1-1">
          <mxGeometry relative="1" as="geometry" />
        </mxCell>
        <mxCell id="GXKxdbZW9Hp5cg-U_LQ1-13" value="Dirección" style="ellipse;whiteSpace=wrap;html=1;" vertex="1" parent="1">
          <mxGeometry x="-565" y="-530" width="70" height="40" as="geometry" />
        </mxCell>
        <mxCell id="GXKxdbZW9Hp5cg-U_LQ1-14" style="rounded=0;orthogonalLoop=1;jettySize=auto;html=1;exitX=0.5;exitY=1;exitDx=0;exitDy=0;entryX=1;entryY=0;entryDx=0;entryDy=0;endArrow=none;endFill=0;" edge="1" parent="1" source="GXKxdbZW9Hp5cg-U_LQ1-15" target="GXKxdbZW9Hp5cg-U_LQ1-13">
          <mxGeometry relative="1" as="geometry" />
        </mxCell>
        <mxCell id="GXKxdbZW9Hp5cg-U_LQ1-15" value="Calle" style="ellipse;whiteSpace=wrap;html=1;" vertex="1" parent="1">
          <mxGeometry x="-492.5" y="-620" width="60" height="40" as="geometry" />
        </mxCell>
        <mxCell id="GXKxdbZW9Hp5cg-U_LQ1-16" style="rounded=0;orthogonalLoop=1;jettySize=auto;html=1;exitX=0.5;exitY=1;exitDx=0;exitDy=0;entryX=0.5;entryY=0;entryDx=0;entryDy=0;endArrow=none;endFill=0;" edge="1" parent="1" source="GXKxdbZW9Hp5cg-U_LQ1-17" target="GXKxdbZW9Hp5cg-U_LQ1-13">
          <mxGeometry relative="1" as="geometry" />
        </mxCell>
        <mxCell id="GXKxdbZW9Hp5cg-U_LQ1-17" value="NumeroInt" style="ellipse;whiteSpace=wrap;html=1;" vertex="1" parent="1">
          <mxGeometry x="-557.5" y="-620" width="60" height="40" as="geometry" />
        </mxCell>
        <mxCell id="GXKxdbZW9Hp5cg-U_LQ1-18" style="rounded=0;orthogonalLoop=1;jettySize=auto;html=1;exitX=0.5;exitY=1;exitDx=0;exitDy=0;entryX=0;entryY=0;entryDx=0;entryDy=0;endArrow=none;endFill=0;" edge="1" parent="1" source="GXKxdbZW9Hp5cg-U_LQ1-19" target="GXKxdbZW9Hp5cg-U_LQ1-13">
          <mxGeometry relative="1" as="geometry" />
        </mxCell>
        <mxCell id="GXKxdbZW9Hp5cg-U_LQ1-19" value="NumeroExt" style="ellipse;whiteSpace=wrap;html=1;" vertex="1" parent="1">
          <mxGeometry x="-630" y="-620" width="67.5" height="40" as="geometry" />
        </mxCell>
        <mxCell id="GXKxdbZW9Hp5cg-U_LQ1-20" style="rounded=0;orthogonalLoop=1;jettySize=auto;html=1;exitX=1;exitY=1;exitDx=0;exitDy=0;entryX=0;entryY=0.5;entryDx=0;entryDy=0;endArrow=none;endFill=0;" edge="1" parent="1" source="GXKxdbZW9Hp5cg-U_LQ1-21" target="GXKxdbZW9Hp5cg-U_LQ1-13">
          <mxGeometry relative="1" as="geometry" />
        </mxCell>
        <mxCell id="GXKxdbZW9Hp5cg-U_LQ1-21" value="Colonia" style="ellipse;whiteSpace=wrap;html=1;" vertex="1" parent="1">
          <mxGeometry x="-697.5" y="-620" width="60" height="40" as="geometry" />
        </mxCell>
        <mxCell id="GXKxdbZW9Hp5cg-U_LQ1-22" style="rounded=0;orthogonalLoop=1;jettySize=auto;html=1;exitX=0;exitY=1;exitDx=0;exitDy=0;entryX=1;entryY=0.5;entryDx=0;entryDy=0;endArrow=none;endFill=0;" edge="1" parent="1" source="GXKxdbZW9Hp5cg-U_LQ1-23" target="GXKxdbZW9Hp5cg-U_LQ1-13">
          <mxGeometry relative="1" as="geometry" />
        </mxCell>
        <mxCell id="GXKxdbZW9Hp5cg-U_LQ1-23" value="Estado" style="ellipse;whiteSpace=wrap;html=1;" vertex="1" parent="1">
          <mxGeometry x="-422.5" y="-620" width="60" height="40" as="geometry" />
        </mxCell>
        <mxCell id="GXKxdbZW9Hp5cg-U_LQ1-24" value="&lt;font style=&quot;font-size: 11px;&quot;&gt;FechaInicioC&lt;/font&gt;" style="ellipse;whiteSpace=wrap;html=1;" vertex="1" parent="1">
          <mxGeometry x="-440" y="-450" width="90" height="50" as="geometry" />
        </mxCell>
        <mxCell id="GXKxdbZW9Hp5cg-U_LQ1-25" value="&lt;font style=&quot;font-size: 11px;&quot;&gt;FechaFinalizaciónC&lt;/font&gt;" style="ellipse;whiteSpace=wrap;html=1;" vertex="1" parent="1">
          <mxGeometry x="-425" y="-395" width="105" height="65" as="geometry" />
        </mxCell>
        <mxCell id="GXKxdbZW9Hp5cg-U_LQ1-26" value="&lt;font style=&quot;font-size: 11px;&quot;&gt;Nacimiento&lt;/font&gt;" style="ellipse;whiteSpace=wrap;html=1;" vertex="1" parent="1">
          <mxGeometry x="-715" y="-385" width="90" height="50" as="geometry" />
        </mxCell>
        <mxCell id="GXKxdbZW9Hp5cg-U_LQ1-27" value="Genero" style="ellipse;whiteSpace=wrap;html=1;" vertex="1" parent="1">
          <mxGeometry x="-715" y="-435" width="60" height="40" as="geometry" />
        </mxCell>
        <mxCell id="GXKxdbZW9Hp5cg-U_LQ1-28" style="rounded=0;orthogonalLoop=1;jettySize=auto;html=1;exitX=1;exitY=0.25;exitDx=0;exitDy=0;entryX=0;entryY=1;entryDx=0;entryDy=0;endArrow=none;endFill=0;" edge="1" parent="1" source="GXKxdbZW9Hp5cg-U_LQ1-30" target="GXKxdbZW9Hp5cg-U_LQ1-31">
          <mxGeometry relative="1" as="geometry" />
        </mxCell>
        <mxCell id="GXKxdbZW9Hp5cg-U_LQ1-29" style="rounded=0;orthogonalLoop=1;jettySize=auto;html=1;exitX=1;exitY=0.75;exitDx=0;exitDy=0;entryX=0;entryY=0.5;entryDx=0;entryDy=0;endArrow=none;endFill=0;" edge="1" parent="1" source="GXKxdbZW9Hp5cg-U_LQ1-30" target="GXKxdbZW9Hp5cg-U_LQ1-32">
          <mxGeometry relative="1" as="geometry" />
        </mxCell>
        <mxCell id="GXKxdbZW9Hp5cg-U_LQ1-30" value="Veterinario" style="rounded=0;whiteSpace=wrap;html=1;" vertex="1" parent="1">
          <mxGeometry x="-780" y="-80" width="80" height="40" as="geometry" />
        </mxCell>
        <mxCell id="GXKxdbZW9Hp5cg-U_LQ1-31" value="Especialidad" style="ellipse;whiteSpace=wrap;html=1;" vertex="1" parent="1">
          <mxGeometry x="-680" y="-125" width="80" height="40" as="geometry" />
        </mxCell>
        <mxCell id="GXKxdbZW9Hp5cg-U_LQ1-32" value="Salario" style="ellipse;whiteSpace=wrap;html=1;" vertex="1" parent="1">
          <mxGeometry x="-680" y="-65" width="60" height="40" as="geometry" />
        </mxCell>
        <mxCell id="GXKxdbZW9Hp5cg-U_LQ1-33" style="rounded=0;orthogonalLoop=1;jettySize=auto;html=1;exitX=0.75;exitY=0;exitDx=0;exitDy=0;entryX=0;entryY=0.5;entryDx=0;entryDy=0;endArrow=none;endFill=0;" edge="1" parent="1" source="GXKxdbZW9Hp5cg-U_LQ1-38" target="GXKxdbZW9Hp5cg-U_LQ1-43">
          <mxGeometry relative="1" as="geometry" />
        </mxCell>
        <mxCell id="GXKxdbZW9Hp5cg-U_LQ1-34" style="rounded=0;orthogonalLoop=1;jettySize=auto;html=1;exitX=1;exitY=0.25;exitDx=0;exitDy=0;entryX=0;entryY=0.5;entryDx=0;entryDy=0;endArrow=none;endFill=0;" edge="1" parent="1" source="GXKxdbZW9Hp5cg-U_LQ1-38" target="GXKxdbZW9Hp5cg-U_LQ1-44">
          <mxGeometry relative="1" as="geometry" />
        </mxCell>
        <mxCell id="GXKxdbZW9Hp5cg-U_LQ1-35" style="rounded=0;orthogonalLoop=1;jettySize=auto;html=1;exitX=1;exitY=0.75;exitDx=0;exitDy=0;entryX=0;entryY=0;entryDx=0;entryDy=0;endArrow=none;endFill=0;" edge="1" parent="1" source="GXKxdbZW9Hp5cg-U_LQ1-38" target="GXKxdbZW9Hp5cg-U_LQ1-47">
          <mxGeometry relative="1" as="geometry" />
        </mxCell>
        <mxCell id="GXKxdbZW9Hp5cg-U_LQ1-36" style="rounded=0;orthogonalLoop=1;jettySize=auto;html=1;exitX=0.75;exitY=1;exitDx=0;exitDy=0;entryX=0;entryY=0.5;entryDx=0;entryDy=0;endArrow=none;endFill=0;" edge="1" parent="1" source="GXKxdbZW9Hp5cg-U_LQ1-38" target="GXKxdbZW9Hp5cg-U_LQ1-48">
          <mxGeometry relative="1" as="geometry" />
        </mxCell>
        <mxCell id="GXKxdbZW9Hp5cg-U_LQ1-37" style="edgeStyle=orthogonalEdgeStyle;rounded=0;orthogonalLoop=1;jettySize=auto;html=1;exitX=0.25;exitY=0;exitDx=0;exitDy=0;entryX=1;entryY=0.5;entryDx=0;entryDy=0;endArrow=none;endFill=0;startArrow=none;startFill=0;" edge="1" parent="1" source="GXKxdbZW9Hp5cg-U_LQ1-38" target="GXKxdbZW9Hp5cg-U_LQ1-175">
          <mxGeometry relative="1" as="geometry" />
        </mxCell>
        <mxCell id="GXKxdbZW9Hp5cg-U_LQ1-38" value="Cuidador" style="rounded=0;whiteSpace=wrap;html=1;" vertex="1" parent="1">
          <mxGeometry x="-570" y="-80" width="80" height="40" as="geometry" />
        </mxCell>
        <mxCell id="GXKxdbZW9Hp5cg-U_LQ1-39" style="rounded=0;orthogonalLoop=1;jettySize=auto;html=1;exitX=1;exitY=0.5;exitDx=0;exitDy=0;entryX=0;entryY=0.5;entryDx=0;entryDy=0;endArrow=none;endFill=0;" edge="1" parent="1" source="GXKxdbZW9Hp5cg-U_LQ1-42" target="GXKxdbZW9Hp5cg-U_LQ1-49">
          <mxGeometry relative="1" as="geometry" />
        </mxCell>
        <mxCell id="GXKxdbZW9Hp5cg-U_LQ1-40" style="rounded=0;orthogonalLoop=1;jettySize=auto;html=1;exitX=1;exitY=1;exitDx=0;exitDy=0;entryX=0;entryY=0.5;entryDx=0;entryDy=0;endArrow=none;endFill=0;" edge="1" parent="1" source="GXKxdbZW9Hp5cg-U_LQ1-42" target="GXKxdbZW9Hp5cg-U_LQ1-50">
          <mxGeometry relative="1" as="geometry" />
        </mxCell>
        <mxCell id="GXKxdbZW9Hp5cg-U_LQ1-41" style="rounded=0;orthogonalLoop=1;jettySize=auto;html=1;exitX=1;exitY=0;exitDx=0;exitDy=0;entryX=0;entryY=0.5;entryDx=0;entryDy=0;endArrow=none;endFill=0;" edge="1" parent="1" source="GXKxdbZW9Hp5cg-U_LQ1-42" target="GXKxdbZW9Hp5cg-U_LQ1-209">
          <mxGeometry relative="1" as="geometry" />
        </mxCell>
        <mxCell id="GXKxdbZW9Hp5cg-U_LQ1-42" value="Proveedor" style="rounded=0;whiteSpace=wrap;html=1;" vertex="1" parent="1">
          <mxGeometry x="-270" y="-80" width="80" height="40" as="geometry" />
        </mxCell>
        <mxCell id="GXKxdbZW9Hp5cg-U_LQ1-43" value="&lt;font style=&quot;font-size: 11px;&quot;&gt;AnimalCargo&lt;/font&gt;" style="ellipse;whiteSpace=wrap;html=1;dashed=1;" vertex="1" parent="1">
          <mxGeometry x="-435" y="-160" width="90" height="40" as="geometry" />
        </mxCell>
        <mxCell id="GXKxdbZW9Hp5cg-U_LQ1-44" value="&lt;font style=&quot;font-size: 11px;&quot;&gt;DiasTrabajo&lt;/font&gt;" style="ellipse;whiteSpace=wrap;html=1;" vertex="1" parent="1">
          <mxGeometry x="-435" y="-110" width="90" height="40" as="geometry" />
        </mxCell>
        <mxCell id="GXKxdbZW9Hp5cg-U_LQ1-45" style="edgeStyle=orthogonalEdgeStyle;rounded=0;orthogonalLoop=1;jettySize=auto;html=1;exitX=0.5;exitY=1;exitDx=0;exitDy=0;" edge="1" parent="1" source="GXKxdbZW9Hp5cg-U_LQ1-44" target="GXKxdbZW9Hp5cg-U_LQ1-44">
          <mxGeometry relative="1" as="geometry" />
        </mxCell>
        <mxCell id="GXKxdbZW9Hp5cg-U_LQ1-46" style="edgeStyle=orthogonalEdgeStyle;rounded=0;orthogonalLoop=1;jettySize=auto;html=1;exitX=0.5;exitY=1;exitDx=0;exitDy=0;" edge="1" parent="1" source="GXKxdbZW9Hp5cg-U_LQ1-44" target="GXKxdbZW9Hp5cg-U_LQ1-44">
          <mxGeometry relative="1" as="geometry" />
        </mxCell>
        <mxCell id="GXKxdbZW9Hp5cg-U_LQ1-47" value="&lt;font style=&quot;font-size: 11px;&quot;&gt;HorarioLaboral&lt;/font&gt;" style="ellipse;whiteSpace=wrap;html=1;" vertex="1" parent="1">
          <mxGeometry x="-435" y="-60" width="90" height="40" as="geometry" />
        </mxCell>
        <mxCell id="GXKxdbZW9Hp5cg-U_LQ1-48" value="&lt;font style=&quot;font-size: 11px;&quot;&gt;Salario&lt;/font&gt;" style="ellipse;whiteSpace=wrap;html=1;" vertex="1" parent="1">
          <mxGeometry x="-435" y="-10" width="90" height="40" as="geometry" />
        </mxCell>
        <mxCell id="GXKxdbZW9Hp5cg-U_LQ1-49" value="&lt;font style=&quot;font-size: 11px;&quot;&gt;FrecuenciaServicio&lt;/font&gt;" style="ellipse;whiteSpace=wrap;html=1;" vertex="1" parent="1">
          <mxGeometry x="-165" y="-80" width="110" height="50" as="geometry" />
        </mxCell>
        <mxCell id="GXKxdbZW9Hp5cg-U_LQ1-50" value="&lt;font style=&quot;font-size: 11px;&quot;&gt;CostoServicio&lt;/font&gt;" style="ellipse;whiteSpace=wrap;html=1;" vertex="1" parent="1">
          <mxGeometry x="-165" y="-25" width="100" height="50" as="geometry" />
        </mxCell>
        <mxCell id="GXKxdbZW9Hp5cg-U_LQ1-51" value="" style="endArrow=none;html=1;rounded=0;exitX=1;exitY=0.5;exitDx=0;exitDy=0;entryX=0;entryY=0.25;entryDx=0;entryDy=0;" edge="1" parent="1" source="GXKxdbZW9Hp5cg-U_LQ1-27" target="GXKxdbZW9Hp5cg-U_LQ1-1">
          <mxGeometry width="50" height="50" relative="1" as="geometry">
            <mxPoint x="-670" y="-260" as="sourcePoint" />
            <mxPoint x="-620" y="-310" as="targetPoint" />
          </mxGeometry>
        </mxCell>
        <mxCell id="GXKxdbZW9Hp5cg-U_LQ1-52" value="" style="endArrow=none;html=1;rounded=0;exitX=1;exitY=0.5;exitDx=0;exitDy=0;entryX=0;entryY=0.75;entryDx=0;entryDy=0;" edge="1" parent="1" source="GXKxdbZW9Hp5cg-U_LQ1-26" target="GXKxdbZW9Hp5cg-U_LQ1-1">
          <mxGeometry width="50" height="50" relative="1" as="geometry">
            <mxPoint x="-715" y="-360" as="sourcePoint" />
            <mxPoint x="-565" y="-320" as="targetPoint" />
          </mxGeometry>
        </mxCell>
        <mxCell id="GXKxdbZW9Hp5cg-U_LQ1-53" value="" style="endArrow=none;html=1;rounded=0;exitX=1;exitY=1;exitDx=0;exitDy=0;entryX=0;entryY=0;entryDx=0;entryDy=0;" edge="1" parent="1" source="GXKxdbZW9Hp5cg-U_LQ1-180" target="GXKxdbZW9Hp5cg-U_LQ1-1">
          <mxGeometry width="50" height="50" relative="1" as="geometry">
            <mxPoint x="-678.1801948466236" y="-457.3223304703463" as="sourcePoint" />
            <mxPoint x="-550" y="-360" as="targetPoint" />
          </mxGeometry>
        </mxCell>
        <mxCell id="GXKxdbZW9Hp5cg-U_LQ1-54" value="" style="endArrow=none;html=1;rounded=0;exitX=1;exitY=1;exitDx=0;exitDy=0;entryX=0.119;entryY=-0.007;entryDx=0;entryDy=0;entryPerimeter=0;" edge="1" parent="1" source="GXKxdbZW9Hp5cg-U_LQ1-171" target="GXKxdbZW9Hp5cg-U_LQ1-1">
          <mxGeometry width="50" height="50" relative="1" as="geometry">
            <mxPoint x="-673.7867965644036" y="-515.8578643762692" as="sourcePoint" />
            <mxPoint x="-540" y="-350" as="targetPoint" />
          </mxGeometry>
        </mxCell>
        <mxCell id="GXKxdbZW9Hp5cg-U_LQ1-55" value="" style="endArrow=none;html=1;rounded=0;exitX=1;exitY=0.25;exitDx=0;exitDy=0;entryX=0.022;entryY=0.7;entryDx=0;entryDy=0;entryPerimeter=0;" edge="1" parent="1" source="GXKxdbZW9Hp5cg-U_LQ1-1" target="GXKxdbZW9Hp5cg-U_LQ1-24">
          <mxGeometry width="50" height="50" relative="1" as="geometry">
            <mxPoint x="-680" y="-380" as="sourcePoint" />
            <mxPoint x="-530" y="-340" as="targetPoint" />
          </mxGeometry>
        </mxCell>
        <mxCell id="GXKxdbZW9Hp5cg-U_LQ1-56" value="" style="endArrow=none;html=1;rounded=0;exitX=1;exitY=0.5;exitDx=0;exitDy=0;entryX=0;entryY=0.5;entryDx=0;entryDy=0;" edge="1" parent="1" source="GXKxdbZW9Hp5cg-U_LQ1-1" target="GXKxdbZW9Hp5cg-U_LQ1-25">
          <mxGeometry width="50" height="50" relative="1" as="geometry">
            <mxPoint x="-670" y="-370" as="sourcePoint" />
            <mxPoint x="-520" y="-330" as="targetPoint" />
          </mxGeometry>
        </mxCell>
        <mxCell id="GXKxdbZW9Hp5cg-U_LQ1-57" value="" style="triangle;whiteSpace=wrap;html=1;rotation=90;" vertex="1" parent="1">
          <mxGeometry x="-560" y="-300" width="60" height="80" as="geometry" />
        </mxCell>
        <mxCell id="GXKxdbZW9Hp5cg-U_LQ1-58" value="" style="endArrow=none;html=1;rounded=0;exitX=0.5;exitY=1;exitDx=0;exitDy=0;entryX=0;entryY=0.5;entryDx=0;entryDy=0;shape=link;" edge="1" parent="1" source="GXKxdbZW9Hp5cg-U_LQ1-1" target="GXKxdbZW9Hp5cg-U_LQ1-57">
          <mxGeometry width="50" height="50" relative="1" as="geometry">
            <mxPoint x="-460" y="-360" as="sourcePoint" />
            <mxPoint x="-310" y="-320" as="targetPoint" />
          </mxGeometry>
        </mxCell>
        <mxCell id="GXKxdbZW9Hp5cg-U_LQ1-59" value="d" style="text;html=1;strokeColor=none;fillColor=none;align=center;verticalAlign=middle;whiteSpace=wrap;rounded=0;" vertex="1" parent="1">
          <mxGeometry x="-560" y="-275" width="60" height="30" as="geometry" />
        </mxCell>
        <mxCell id="GXKxdbZW9Hp5cg-U_LQ1-60" value="" style="endArrow=none;html=1;rounded=0;entryX=0.5;entryY=1;entryDx=0;entryDy=0;exitX=0.5;exitY=0;exitDx=0;exitDy=0;edgeStyle=orthogonalEdgeStyle;" edge="1" parent="1" source="GXKxdbZW9Hp5cg-U_LQ1-30" target="GXKxdbZW9Hp5cg-U_LQ1-57">
          <mxGeometry width="50" height="50" relative="1" as="geometry">
            <mxPoint x="-630" y="-180" as="sourcePoint" />
            <mxPoint x="-580" y="-230" as="targetPoint" />
            <Array as="points">
              <mxPoint x="-750" y="-260" />
            </Array>
          </mxGeometry>
        </mxCell>
        <mxCell id="GXKxdbZW9Hp5cg-U_LQ1-61" value="" style="endArrow=none;html=1;rounded=0;entryX=1;entryY=0.5;entryDx=0;entryDy=0;exitX=0.5;exitY=0;exitDx=0;exitDy=0;" edge="1" parent="1" source="GXKxdbZW9Hp5cg-U_LQ1-38" target="GXKxdbZW9Hp5cg-U_LQ1-57">
          <mxGeometry width="50" height="50" relative="1" as="geometry">
            <mxPoint x="-480" y="20" as="sourcePoint" />
            <mxPoint x="-430" y="-30" as="targetPoint" />
          </mxGeometry>
        </mxCell>
        <mxCell id="GXKxdbZW9Hp5cg-U_LQ1-62" value="" style="endArrow=none;html=1;rounded=0;exitX=0.5;exitY=0;exitDx=0;exitDy=0;entryX=0.5;entryY=0;entryDx=0;entryDy=0;edgeStyle=orthogonalEdgeStyle;" edge="1" parent="1" source="GXKxdbZW9Hp5cg-U_LQ1-57" target="GXKxdbZW9Hp5cg-U_LQ1-42">
          <mxGeometry width="50" height="50" relative="1" as="geometry">
            <mxPoint x="-150" y="-200" as="sourcePoint" />
            <mxPoint x="-100" y="-250" as="targetPoint" />
          </mxGeometry>
        </mxCell>
        <mxCell id="GXKxdbZW9Hp5cg-U_LQ1-63" style="rounded=0;orthogonalLoop=1;jettySize=auto;html=1;exitX=0;exitY=0.25;exitDx=0;exitDy=0;entryX=1;entryY=0.5;entryDx=0;entryDy=0;endArrow=none;endFill=0;" edge="1" parent="1" source="GXKxdbZW9Hp5cg-U_LQ1-64" target="GXKxdbZW9Hp5cg-U_LQ1-183">
          <mxGeometry relative="1" as="geometry" />
        </mxCell>
        <mxCell id="GXKxdbZW9Hp5cg-U_LQ1-64" value="Animal" style="whiteSpace=wrap;html=1;align=center;" vertex="1" parent="1">
          <mxGeometry x="-792.5" y="230" width="100" height="40" as="geometry" />
        </mxCell>
        <mxCell id="GXKxdbZW9Hp5cg-U_LQ1-65" style="edgeStyle=orthogonalEdgeStyle;rounded=0;orthogonalLoop=1;jettySize=auto;html=1;exitX=0.75;exitY=1;exitDx=0;exitDy=0;entryX=0;entryY=0.5;entryDx=0;entryDy=0;endArrow=none;endFill=0;startArrow=none;startFill=0;shape=link;" edge="1" parent="1" source="GXKxdbZW9Hp5cg-U_LQ1-67" target="GXKxdbZW9Hp5cg-U_LQ1-173">
          <mxGeometry relative="1" as="geometry" />
        </mxCell>
        <mxCell id="GXKxdbZW9Hp5cg-U_LQ1-66" style="rounded=0;orthogonalLoop=1;jettySize=auto;html=1;exitX=0;exitY=0;exitDx=0;exitDy=0;entryX=1;entryY=1;entryDx=0;entryDy=0;fontStyle=0;endArrow=none;endFill=0;" edge="1" parent="1" source="GXKxdbZW9Hp5cg-U_LQ1-67" target="GXKxdbZW9Hp5cg-U_LQ1-177">
          <mxGeometry relative="1" as="geometry" />
        </mxCell>
        <mxCell id="GXKxdbZW9Hp5cg-U_LQ1-67" value="Bioma" style="whiteSpace=wrap;html=1;align=center;" vertex="1" parent="1">
          <mxGeometry x="-1210" y="-145" width="100" height="40" as="geometry" />
        </mxCell>
        <mxCell id="GXKxdbZW9Hp5cg-U_LQ1-68" style="edgeStyle=orthogonalEdgeStyle;rounded=0;orthogonalLoop=1;jettySize=auto;html=1;exitX=1;exitY=0.75;exitDx=0;exitDy=0;entryX=0;entryY=0.5;entryDx=0;entryDy=0;endArrow=none;endFill=0;shape=link;" edge="1" parent="1" source="GXKxdbZW9Hp5cg-U_LQ1-69" target="GXKxdbZW9Hp5cg-U_LQ1-203">
          <mxGeometry relative="1" as="geometry">
            <mxPoint x="-1110" y="400" as="sourcePoint" />
            <Array as="points">
              <mxPoint x="-700" y="408" />
              <mxPoint x="-290" y="408" />
            </Array>
          </mxGeometry>
        </mxCell>
        <mxCell id="GXKxdbZW9Hp5cg-U_LQ1-69" value="Insumo" style="whiteSpace=wrap;html=1;align=center;" vertex="1" parent="1">
          <mxGeometry x="-1236" y="377.5" width="100" height="40" as="geometry" />
        </mxCell>
        <mxCell id="GXKxdbZW9Hp5cg-U_LQ1-70" value="NumJaulas" style="ellipse;whiteSpace=wrap;html=1;align=center;" vertex="1" parent="1">
          <mxGeometry x="-1059" y="-275" width="80" height="45" as="geometry" />
        </mxCell>
        <mxCell id="GXKxdbZW9Hp5cg-U_LQ1-71" value="NúmeroCuidadores" style="ellipse;whiteSpace=wrap;html=1;align=center;dashed=1;" vertex="1" parent="1">
          <mxGeometry x="-1330" y="-282.5" width="103" height="45" as="geometry" />
        </mxCell>
        <mxCell id="GXKxdbZW9Hp5cg-U_LQ1-72" value="NúmAnimales" style="ellipse;whiteSpace=wrap;html=1;align=center;dashed=1;" vertex="1" parent="1">
          <mxGeometry x="-1059" y="-227.5" width="109" height="45" as="geometry" />
        </mxCell>
        <mxCell id="GXKxdbZW9Hp5cg-U_LQ1-73" value="ServicioVisitantes" style="ellipse;whiteSpace=wrap;html=1;align=center;" vertex="1" parent="1">
          <mxGeometry x="-1146" y="-310" width="96" height="50" as="geometry" />
        </mxCell>
        <mxCell id="GXKxdbZW9Hp5cg-U_LQ1-74" value="" style="endArrow=none;html=1;rounded=0;exitX=0;exitY=1;exitDx=0;exitDy=0;entryX=1;entryY=0.25;entryDx=0;entryDy=0;" edge="1" parent="1" source="GXKxdbZW9Hp5cg-U_LQ1-72" target="GXKxdbZW9Hp5cg-U_LQ1-67">
          <mxGeometry width="50" height="50" relative="1" as="geometry">
            <mxPoint x="-1250" y="-25" as="sourcePoint" />
            <mxPoint x="-1150" y="-95" as="targetPoint" />
          </mxGeometry>
        </mxCell>
        <mxCell id="GXKxdbZW9Hp5cg-U_LQ1-75" value="" style="endArrow=none;html=1;rounded=0;exitX=1;exitY=1;exitDx=0;exitDy=0;entryX=0.25;entryY=0;entryDx=0;entryDy=0;" edge="1" parent="1" source="GXKxdbZW9Hp5cg-U_LQ1-71" target="GXKxdbZW9Hp5cg-U_LQ1-67">
          <mxGeometry width="50" height="50" relative="1" as="geometry">
            <mxPoint x="-1240" y="-15" as="sourcePoint" />
            <mxPoint x="-1140" y="-85" as="targetPoint" />
          </mxGeometry>
        </mxCell>
        <mxCell id="GXKxdbZW9Hp5cg-U_LQ1-76" value="" style="endArrow=none;html=1;rounded=0;exitX=0.5;exitY=1;exitDx=0;exitDy=0;entryX=0.5;entryY=0;entryDx=0;entryDy=0;" edge="1" parent="1" source="GXKxdbZW9Hp5cg-U_LQ1-167" target="GXKxdbZW9Hp5cg-U_LQ1-67">
          <mxGeometry width="50" height="50" relative="1" as="geometry">
            <mxPoint x="-1198.96" y="-219" as="sourcePoint" />
            <mxPoint x="-1180" y="-130" as="targetPoint" />
          </mxGeometry>
        </mxCell>
        <mxCell id="GXKxdbZW9Hp5cg-U_LQ1-77" value="" style="endArrow=none;html=1;rounded=0;exitX=0.75;exitY=0;exitDx=0;exitDy=0;entryX=0.5;entryY=1;entryDx=0;entryDy=0;" edge="1" parent="1" source="GXKxdbZW9Hp5cg-U_LQ1-67" target="GXKxdbZW9Hp5cg-U_LQ1-73">
          <mxGeometry width="50" height="50" relative="1" as="geometry">
            <mxPoint x="-1220" y="5" as="sourcePoint" />
            <mxPoint x="-1120" y="-65" as="targetPoint" />
          </mxGeometry>
        </mxCell>
        <mxCell id="GXKxdbZW9Hp5cg-U_LQ1-78" value="Especie" style="ellipse;whiteSpace=wrap;html=1;align=center;" vertex="1" parent="1">
          <mxGeometry x="-900" y="310" width="50" height="40" as="geometry" />
        </mxCell>
        <mxCell id="GXKxdbZW9Hp5cg-U_LQ1-79" value="Peso" style="ellipse;whiteSpace=wrap;html=1;align=center;" vertex="1" parent="1">
          <mxGeometry x="-855" y="340" width="60" height="40" as="geometry" />
        </mxCell>
        <mxCell id="GXKxdbZW9Hp5cg-U_LQ1-80" value="Altura" style="ellipse;whiteSpace=wrap;html=1;align=center;" vertex="1" parent="1">
          <mxGeometry x="-792.5" y="352.5" width="60" height="45" as="geometry" />
        </mxCell>
        <mxCell id="GXKxdbZW9Hp5cg-U_LQ1-81" value="Sexo" style="ellipse;whiteSpace=wrap;html=1;align=center;" vertex="1" parent="1">
          <mxGeometry x="-722.5" y="352.5" width="60" height="40" as="geometry" />
        </mxCell>
        <mxCell id="GXKxdbZW9Hp5cg-U_LQ1-82" value="NumJaula" style="ellipse;whiteSpace=wrap;html=1;align=center;" vertex="1" parent="1">
          <mxGeometry x="-652.5" y="350" width="70" height="40" as="geometry" />
        </mxCell>
        <mxCell id="GXKxdbZW9Hp5cg-U_LQ1-83" value="IndMedica" style="ellipse;whiteSpace=wrap;html=1;align=center;dashed=1;" vertex="1" parent="1">
          <mxGeometry x="-580" y="250" width="80" height="50" as="geometry" />
        </mxCell>
        <mxCell id="GXKxdbZW9Hp5cg-U_LQ1-84" value="" style="endArrow=none;html=1;rounded=0;exitX=1;exitY=0.5;exitDx=0;exitDy=0;entryX=0;entryY=0.75;entryDx=0;entryDy=0;" edge="1" parent="1" source="GXKxdbZW9Hp5cg-U_LQ1-168" target="GXKxdbZW9Hp5cg-U_LQ1-64">
          <mxGeometry width="50" height="50" relative="1" as="geometry">
            <mxPoint x="-872.5" y="250" as="sourcePoint" />
            <mxPoint x="-842.5" y="170" as="targetPoint" />
          </mxGeometry>
        </mxCell>
        <mxCell id="GXKxdbZW9Hp5cg-U_LQ1-85" value="" style="endArrow=none;html=1;rounded=0;exitX=0.39;exitY=1.025;exitDx=0;exitDy=0;entryX=0.5;entryY=0;entryDx=0;entryDy=0;exitPerimeter=0;" edge="1" parent="1" source="GXKxdbZW9Hp5cg-U_LQ1-64" target="GXKxdbZW9Hp5cg-U_LQ1-80">
          <mxGeometry width="50" height="50" relative="1" as="geometry">
            <mxPoint x="-822.5" y="330" as="sourcePoint" />
            <mxPoint x="-732.5" y="310" as="targetPoint" />
          </mxGeometry>
        </mxCell>
        <mxCell id="GXKxdbZW9Hp5cg-U_LQ1-86" value="" style="endArrow=none;html=1;rounded=0;exitX=1;exitY=0.5;exitDx=0;exitDy=0;entryX=0;entryY=1;entryDx=0;entryDy=0;" edge="1" parent="1" source="GXKxdbZW9Hp5cg-U_LQ1-78" target="GXKxdbZW9Hp5cg-U_LQ1-64">
          <mxGeometry width="50" height="50" relative="1" as="geometry">
            <mxPoint x="-812.5" y="340" as="sourcePoint" />
            <mxPoint x="-722.5" y="320" as="targetPoint" />
          </mxGeometry>
        </mxCell>
        <mxCell id="GXKxdbZW9Hp5cg-U_LQ1-87" value="" style="endArrow=none;html=1;rounded=0;exitX=0.5;exitY=0;exitDx=0;exitDy=0;entryX=0.25;entryY=1;entryDx=0;entryDy=0;" edge="1" parent="1" source="GXKxdbZW9Hp5cg-U_LQ1-79" target="GXKxdbZW9Hp5cg-U_LQ1-64">
          <mxGeometry width="50" height="50" relative="1" as="geometry">
            <mxPoint x="-802.5" y="350" as="sourcePoint" />
            <mxPoint x="-712.5" y="330" as="targetPoint" />
          </mxGeometry>
        </mxCell>
        <mxCell id="GXKxdbZW9Hp5cg-U_LQ1-88" value="" style="endArrow=none;html=1;rounded=0;exitX=0.61;exitY=1.05;exitDx=0;exitDy=0;entryX=0.5;entryY=0;entryDx=0;entryDy=0;exitPerimeter=0;" edge="1" parent="1" source="GXKxdbZW9Hp5cg-U_LQ1-64" target="GXKxdbZW9Hp5cg-U_LQ1-81">
          <mxGeometry width="50" height="50" relative="1" as="geometry">
            <mxPoint x="-792.5" y="360" as="sourcePoint" />
            <mxPoint x="-702.5" y="340" as="targetPoint" />
          </mxGeometry>
        </mxCell>
        <mxCell id="GXKxdbZW9Hp5cg-U_LQ1-89" value="" style="endArrow=none;html=1;rounded=0;exitX=1;exitY=1;exitDx=0;exitDy=0;entryX=0;entryY=0;entryDx=0;entryDy=0;" edge="1" parent="1" source="GXKxdbZW9Hp5cg-U_LQ1-64" target="GXKxdbZW9Hp5cg-U_LQ1-82">
          <mxGeometry width="50" height="50" relative="1" as="geometry">
            <mxPoint x="-782.5" y="370" as="sourcePoint" />
            <mxPoint x="-692.5" y="350" as="targetPoint" />
          </mxGeometry>
        </mxCell>
        <mxCell id="GXKxdbZW9Hp5cg-U_LQ1-90" value="" style="endArrow=none;html=1;rounded=0;exitX=1;exitY=0.75;exitDx=0;exitDy=0;entryX=0;entryY=0.5;entryDx=0;entryDy=0;" edge="1" parent="1" source="GXKxdbZW9Hp5cg-U_LQ1-64" target="GXKxdbZW9Hp5cg-U_LQ1-178">
          <mxGeometry width="50" height="50" relative="1" as="geometry">
            <mxPoint x="-772.5" y="380" as="sourcePoint" />
            <mxPoint x="-592.5" y="332.5" as="targetPoint" />
          </mxGeometry>
        </mxCell>
        <mxCell id="GXKxdbZW9Hp5cg-U_LQ1-91" value="" style="endArrow=none;html=1;rounded=0;exitX=1;exitY=0.5;exitDx=0;exitDy=0;entryX=0;entryY=0.5;entryDx=0;entryDy=0;" edge="1" parent="1" source="GXKxdbZW9Hp5cg-U_LQ1-64" target="GXKxdbZW9Hp5cg-U_LQ1-83">
          <mxGeometry width="50" height="50" relative="1" as="geometry">
            <mxPoint x="-762.5" y="390" as="sourcePoint" />
            <mxPoint x="-672.5" y="370" as="targetPoint" />
          </mxGeometry>
        </mxCell>
        <mxCell id="GXKxdbZW9Hp5cg-U_LQ1-92" style="rounded=0;orthogonalLoop=1;jettySize=auto;html=1;exitX=1;exitY=1;exitDx=0;exitDy=0;entryX=0;entryY=0.5;entryDx=0;entryDy=0;endArrow=none;endFill=0;" edge="1" parent="1" source="GXKxdbZW9Hp5cg-U_LQ1-93" target="GXKxdbZW9Hp5cg-U_LQ1-210">
          <mxGeometry relative="1" as="geometry" />
        </mxCell>
        <mxCell id="GXKxdbZW9Hp5cg-U_LQ1-93" value="Atender" style="shape=rhombus;perimeter=rhombusPerimeter;whiteSpace=wrap;html=1;align=center;" vertex="1" parent="1">
          <mxGeometry x="-800" y="10" width="120" height="60" as="geometry" />
        </mxCell>
        <mxCell id="GXKxdbZW9Hp5cg-U_LQ1-94" value="" style="endArrow=none;html=1;rounded=0;entryX=0.5;entryY=1;entryDx=0;entryDy=0;shape=link;exitX=0.5;exitY=0;exitDx=0;exitDy=0;" edge="1" parent="1" source="GXKxdbZW9Hp5cg-U_LQ1-64" target="GXKxdbZW9Hp5cg-U_LQ1-93">
          <mxGeometry width="50" height="50" relative="1" as="geometry">
            <mxPoint x="-742.4949999999999" y="219.125" as="sourcePoint" />
            <mxPoint x="-835" y="160" as="targetPoint" />
          </mxGeometry>
        </mxCell>
        <mxCell id="GXKxdbZW9Hp5cg-U_LQ1-95" value="Cuidar" style="shape=rhombus;perimeter=rhombusPerimeter;whiteSpace=wrap;html=1;align=center;" vertex="1" parent="1">
          <mxGeometry x="-587.5" y="10" width="120" height="60" as="geometry" />
        </mxCell>
        <mxCell id="GXKxdbZW9Hp5cg-U_LQ1-96" value="Habitar" style="shape=rhombus;perimeter=rhombusPerimeter;whiteSpace=wrap;html=1;align=center;" vertex="1" parent="1">
          <mxGeometry x="-1095" y="100" width="90" height="60" as="geometry" />
        </mxCell>
        <mxCell id="GXKxdbZW9Hp5cg-U_LQ1-97" value="" style="endArrow=none;html=1;rounded=0;entryX=1;entryY=0.5;entryDx=0;entryDy=0;edgeStyle=orthogonalEdgeStyle;endFill=0;startArrow=block;startFill=1;shape=link;exitX=0.25;exitY=0;exitDx=0;exitDy=0;" edge="1" parent="1" source="GXKxdbZW9Hp5cg-U_LQ1-64" target="GXKxdbZW9Hp5cg-U_LQ1-96">
          <mxGeometry width="50" height="50" relative="1" as="geometry">
            <mxPoint x="-950" y="70" as="sourcePoint" />
            <mxPoint x="-1170" y="-175" as="targetPoint" />
            <Array as="points">
              <mxPoint x="-768" y="130" />
            </Array>
          </mxGeometry>
        </mxCell>
        <mxCell id="GXKxdbZW9Hp5cg-U_LQ1-98" value="" style="endArrow=none;html=1;rounded=0;entryX=0;entryY=1;entryDx=0;entryDy=0;exitX=1;exitY=0;exitDx=0;exitDy=0;" edge="1" parent="1" source="GXKxdbZW9Hp5cg-U_LQ1-67" target="GXKxdbZW9Hp5cg-U_LQ1-70">
          <mxGeometry width="50" height="50" relative="1" as="geometry">
            <mxPoint x="-1120" y="50" as="sourcePoint" />
            <mxPoint x="-1140" y="-85" as="targetPoint" />
          </mxGeometry>
        </mxCell>
        <mxCell id="GXKxdbZW9Hp5cg-U_LQ1-99" value="" style="endArrow=block;html=1;rounded=0;exitX=0;exitY=0.5;exitDx=0;exitDy=0;endFill=1;edgeStyle=orthogonalEdgeStyle;shape=link;entryX=0;entryY=0.5;entryDx=0;entryDy=0;" edge="1" parent="1" source="GXKxdbZW9Hp5cg-U_LQ1-96" target="GXKxdbZW9Hp5cg-U_LQ1-204">
          <mxGeometry width="50" height="50" relative="1" as="geometry">
            <mxPoint x="-1160" y="-90" as="sourcePoint" />
            <mxPoint x="-1160" y="-80" as="targetPoint" />
          </mxGeometry>
        </mxCell>
        <mxCell id="GXKxdbZW9Hp5cg-U_LQ1-100" value="" style="endArrow=none;html=1;rounded=0;entryX=0.5;entryY=1;entryDx=0;entryDy=0;exitX=0.5;exitY=0;exitDx=0;exitDy=0;edgeStyle=orthogonalEdgeStyle;" edge="1" parent="1" source="GXKxdbZW9Hp5cg-U_LQ1-93" target="GXKxdbZW9Hp5cg-U_LQ1-30">
          <mxGeometry width="50" height="50" relative="1" as="geometry">
            <mxPoint x="-830" y="10" as="sourcePoint" />
            <mxPoint x="-780" y="-40" as="targetPoint" />
          </mxGeometry>
        </mxCell>
        <mxCell id="GXKxdbZW9Hp5cg-U_LQ1-101" value="" style="endArrow=block;html=1;rounded=0;entryX=0.5;entryY=1;entryDx=0;entryDy=0;exitX=0.5;exitY=0;exitDx=0;exitDy=0;edgeStyle=orthogonalEdgeStyle;endFill=1;" edge="1" parent="1" source="GXKxdbZW9Hp5cg-U_LQ1-95" target="GXKxdbZW9Hp5cg-U_LQ1-38">
          <mxGeometry width="50" height="50" relative="1" as="geometry">
            <mxPoint x="-590" y="80" as="sourcePoint" />
            <mxPoint x="-540" y="30" as="targetPoint" />
            <Array as="points">
              <mxPoint x="-530" y="10" />
            </Array>
          </mxGeometry>
        </mxCell>
        <mxCell id="GXKxdbZW9Hp5cg-U_LQ1-102" value="Cantidad" style="ellipse;whiteSpace=wrap;html=1;align=center;" vertex="1" parent="1">
          <mxGeometry x="-1139" y="300" width="70" height="40" as="geometry" />
        </mxCell>
        <mxCell id="GXKxdbZW9Hp5cg-U_LQ1-103" value="FechaCad" style="ellipse;whiteSpace=wrap;html=1;align=center;" vertex="1" parent="1">
          <mxGeometry x="-1110" y="437.5" width="70" height="50" as="geometry" />
        </mxCell>
        <mxCell id="GXKxdbZW9Hp5cg-U_LQ1-104" value="Alimento" style="whiteSpace=wrap;html=1;align=center;" vertex="1" parent="1">
          <mxGeometry x="-1380.5" y="557.5" width="100" height="40" as="geometry" />
        </mxCell>
        <mxCell id="GXKxdbZW9Hp5cg-U_LQ1-105" value="Medicina" style="whiteSpace=wrap;html=1;align=center;" vertex="1" parent="1">
          <mxGeometry x="-1078" y="547.5" width="100" height="40" as="geometry" />
        </mxCell>
        <mxCell id="GXKxdbZW9Hp5cg-U_LQ1-106" value="TipoAlimento" style="ellipse;whiteSpace=wrap;html=1;align=center;" vertex="1" parent="1">
          <mxGeometry x="-1426" y="617.5" width="87" height="40" as="geometry" />
        </mxCell>
        <mxCell id="GXKxdbZW9Hp5cg-U_LQ1-107" value="Lote" style="ellipse;whiteSpace=wrap;html=1;align=center;" vertex="1" parent="1">
          <mxGeometry x="-1093" y="617.5" width="70" height="50" as="geometry" />
        </mxCell>
        <mxCell id="GXKxdbZW9Hp5cg-U_LQ1-108" value="LabProcedencia" style="ellipse;whiteSpace=wrap;html=1;align=center;" vertex="1" parent="1">
          <mxGeometry x="-1014" y="620" width="104" height="47.5" as="geometry" />
        </mxCell>
        <mxCell id="GXKxdbZW9Hp5cg-U_LQ1-109" value="" style="endArrow=none;html=1;rounded=0;exitX=0;exitY=0;exitDx=0;exitDy=0;entryX=1;entryY=1;entryDx=0;entryDy=0;" edge="1" parent="1" source="GXKxdbZW9Hp5cg-U_LQ1-69" target="GXKxdbZW9Hp5cg-U_LQ1-169">
          <mxGeometry width="50" height="50" relative="1" as="geometry">
            <mxPoint x="-1458" y="424" as="sourcePoint" />
            <mxPoint x="-1288" y="375" as="targetPoint" />
          </mxGeometry>
        </mxCell>
        <mxCell id="GXKxdbZW9Hp5cg-U_LQ1-110" value="" style="endArrow=none;html=1;rounded=0;exitX=0;exitY=0.5;exitDx=0;exitDy=0;entryX=1;entryY=1;entryDx=0;entryDy=0;" edge="1" parent="1" source="GXKxdbZW9Hp5cg-U_LQ1-103" target="GXKxdbZW9Hp5cg-U_LQ1-69">
          <mxGeometry width="50" height="50" relative="1" as="geometry">
            <mxPoint x="-1188" y="440" as="sourcePoint" />
            <mxPoint x="-1235" y="495" as="targetPoint" />
          </mxGeometry>
        </mxCell>
        <mxCell id="GXKxdbZW9Hp5cg-U_LQ1-111" value="" style="endArrow=none;html=1;rounded=0;exitX=0;exitY=1;exitDx=0;exitDy=0;entryX=1;entryY=0;entryDx=0;entryDy=0;" edge="1" parent="1" source="GXKxdbZW9Hp5cg-U_LQ1-102" target="GXKxdbZW9Hp5cg-U_LQ1-69">
          <mxGeometry width="50" height="50" relative="1" as="geometry">
            <mxPoint x="-1178" y="450" as="sourcePoint" />
            <mxPoint x="-1225" y="505" as="targetPoint" />
          </mxGeometry>
        </mxCell>
        <mxCell id="GXKxdbZW9Hp5cg-U_LQ1-112" value="" style="endArrow=none;html=1;rounded=0;exitX=0.5;exitY=1;exitDx=0;exitDy=0;entryX=0.5;entryY=0;entryDx=0;entryDy=0;" edge="1" parent="1" source="GXKxdbZW9Hp5cg-U_LQ1-104" target="GXKxdbZW9Hp5cg-U_LQ1-106">
          <mxGeometry width="50" height="50" relative="1" as="geometry">
            <mxPoint x="-1319.5" y="537.5" as="sourcePoint" />
            <mxPoint x="-1366.5" y="617.5" as="targetPoint" />
          </mxGeometry>
        </mxCell>
        <mxCell id="GXKxdbZW9Hp5cg-U_LQ1-113" value="" style="endArrow=none;html=1;rounded=0;exitX=0.25;exitY=1;exitDx=0;exitDy=0;entryX=0.5;entryY=0;entryDx=0;entryDy=0;" edge="1" parent="1" source="GXKxdbZW9Hp5cg-U_LQ1-105" target="GXKxdbZW9Hp5cg-U_LQ1-107">
          <mxGeometry width="50" height="50" relative="1" as="geometry">
            <mxPoint x="-1123" y="582.5" as="sourcePoint" />
            <mxPoint x="-1170" y="637.5" as="targetPoint" />
          </mxGeometry>
        </mxCell>
        <mxCell id="GXKxdbZW9Hp5cg-U_LQ1-114" value="" style="endArrow=none;html=1;rounded=0;exitX=0.75;exitY=1;exitDx=0;exitDy=0;entryX=0.5;entryY=0;entryDx=0;entryDy=0;" edge="1" parent="1" source="GXKxdbZW9Hp5cg-U_LQ1-105" target="GXKxdbZW9Hp5cg-U_LQ1-108">
          <mxGeometry width="50" height="50" relative="1" as="geometry">
            <mxPoint x="-936" y="582.5" as="sourcePoint" />
            <mxPoint x="-990.9999999999995" y="618.4999999999995" as="targetPoint" />
          </mxGeometry>
        </mxCell>
        <mxCell id="GXKxdbZW9Hp5cg-U_LQ1-115" style="edgeStyle=orthogonalEdgeStyle;rounded=0;orthogonalLoop=1;jettySize=auto;html=1;exitX=0;exitY=0.5;exitDx=0;exitDy=0;entryX=0.5;entryY=1;entryDx=0;entryDy=0;endArrow=none;endFill=0;shape=link;" edge="1" parent="1" source="GXKxdbZW9Hp5cg-U_LQ1-116" target="GXKxdbZW9Hp5cg-U_LQ1-69">
          <mxGeometry relative="1" as="geometry">
            <Array as="points">
              <mxPoint x="-1186" y="478" />
            </Array>
          </mxGeometry>
        </mxCell>
        <mxCell id="GXKxdbZW9Hp5cg-U_LQ1-116" value="" style="triangle;whiteSpace=wrap;html=1;rotation=90;" vertex="1" parent="1">
          <mxGeometry x="-1216" y="467.5" width="60" height="80" as="geometry" />
        </mxCell>
        <mxCell id="GXKxdbZW9Hp5cg-U_LQ1-117" value="" style="endArrow=none;html=1;rounded=0;exitX=0.5;exitY=0;exitDx=0;exitDy=0;entryX=0.5;entryY=0;entryDx=0;entryDy=0;edgeStyle=orthogonalEdgeStyle;" edge="1" parent="1" source="GXKxdbZW9Hp5cg-U_LQ1-116" target="GXKxdbZW9Hp5cg-U_LQ1-105">
          <mxGeometry width="50" height="50" relative="1" as="geometry">
            <mxPoint x="-1043" y="517.5" as="sourcePoint" />
            <mxPoint x="-993" y="467.5" as="targetPoint" />
          </mxGeometry>
        </mxCell>
        <mxCell id="GXKxdbZW9Hp5cg-U_LQ1-118" value="" style="endArrow=none;html=1;rounded=0;entryX=0.5;entryY=1;entryDx=0;entryDy=0;exitX=0.5;exitY=0;exitDx=0;exitDy=0;edgeStyle=orthogonalEdgeStyle;" edge="1" parent="1" source="GXKxdbZW9Hp5cg-U_LQ1-104" target="GXKxdbZW9Hp5cg-U_LQ1-116">
          <mxGeometry width="50" height="50" relative="1" as="geometry">
            <mxPoint x="-1363" y="537.5" as="sourcePoint" />
            <mxPoint x="-1313" y="487.5" as="targetPoint" />
            <Array as="points">
              <mxPoint x="-1330" y="507.5" />
            </Array>
          </mxGeometry>
        </mxCell>
        <mxCell id="GXKxdbZW9Hp5cg-U_LQ1-119" style="rounded=0;orthogonalLoop=1;jettySize=auto;html=1;exitX=1;exitY=0.75;exitDx=0;exitDy=0;entryX=0;entryY=0.5;entryDx=0;entryDy=0;endArrow=none;endFill=0;" edge="1" parent="1" source="GXKxdbZW9Hp5cg-U_LQ1-120" target="GXKxdbZW9Hp5cg-U_LQ1-201">
          <mxGeometry relative="1" as="geometry" />
        </mxCell>
        <mxCell id="GXKxdbZW9Hp5cg-U_LQ1-120" value="Cliente" style="whiteSpace=wrap;html=1;align=center;" vertex="1" parent="1">
          <mxGeometry x="-1400" y="-520" width="100" height="40" as="geometry" />
        </mxCell>
        <mxCell id="GXKxdbZW9Hp5cg-U_LQ1-121" value="NombreC" style="ellipse;whiteSpace=wrap;html=1;" vertex="1" parent="1">
          <mxGeometry x="-1340" y="-600" width="80" height="40" as="geometry" />
        </mxCell>
        <mxCell id="GXKxdbZW9Hp5cg-U_LQ1-122" value="Nombre" style="ellipse;whiteSpace=wrap;html=1;" vertex="1" parent="1">
          <mxGeometry x="-1210" y="-670" width="60" height="40" as="geometry" />
        </mxCell>
        <mxCell id="GXKxdbZW9Hp5cg-U_LQ1-123" value="&lt;font style=&quot;font-size: 11px;&quot;&gt;ApellidoP&lt;/font&gt;" style="ellipse;whiteSpace=wrap;html=1;" vertex="1" parent="1">
          <mxGeometry x="-1210" y="-620" width="60" height="40" as="geometry" />
        </mxCell>
        <mxCell id="GXKxdbZW9Hp5cg-U_LQ1-124" value="&lt;font style=&quot;font-size: 11px;&quot;&gt;ApellidoM&lt;/font&gt;" style="ellipse;whiteSpace=wrap;html=1;" vertex="1" parent="1">
          <mxGeometry x="-1210" y="-570" width="60" height="40" as="geometry" />
        </mxCell>
        <mxCell id="GXKxdbZW9Hp5cg-U_LQ1-125" style="edgeStyle=orthogonalEdgeStyle;rounded=0;orthogonalLoop=1;jettySize=auto;html=1;exitX=0.5;exitY=1;exitDx=0;exitDy=0;" edge="1" parent="1">
          <mxGeometry relative="1" as="geometry">
            <mxPoint x="-1180" y="-640" as="sourcePoint" />
            <mxPoint x="-1180" y="-640" as="targetPoint" />
          </mxGeometry>
        </mxCell>
        <mxCell id="GXKxdbZW9Hp5cg-U_LQ1-126" value="" style="endArrow=none;html=1;rounded=0;exitX=0.75;exitY=0;exitDx=0;exitDy=0;entryX=0.276;entryY=0.942;entryDx=0;entryDy=0;entryPerimeter=0;" edge="1" parent="1" source="GXKxdbZW9Hp5cg-U_LQ1-120" target="GXKxdbZW9Hp5cg-U_LQ1-121">
          <mxGeometry width="50" height="50" relative="1" as="geometry">
            <mxPoint x="-1440" y="-470" as="sourcePoint" />
            <mxPoint x="-1290" y="-540" as="targetPoint" />
          </mxGeometry>
        </mxCell>
        <mxCell id="GXKxdbZW9Hp5cg-U_LQ1-127" value="" style="endArrow=none;html=1;rounded=0;entryX=0;entryY=0.5;entryDx=0;entryDy=0;exitX=1;exitY=1;exitDx=0;exitDy=0;" edge="1" parent="1" source="GXKxdbZW9Hp5cg-U_LQ1-121" target="GXKxdbZW9Hp5cg-U_LQ1-124">
          <mxGeometry width="50" height="50" relative="1" as="geometry">
            <mxPoint x="-1270" y="-480" as="sourcePoint" />
            <mxPoint x="-1220" y="-530" as="targetPoint" />
          </mxGeometry>
        </mxCell>
        <mxCell id="GXKxdbZW9Hp5cg-U_LQ1-128" value="" style="endArrow=none;html=1;rounded=0;entryX=0;entryY=0.5;entryDx=0;entryDy=0;exitX=1;exitY=0.5;exitDx=0;exitDy=0;" edge="1" parent="1" source="GXKxdbZW9Hp5cg-U_LQ1-121" target="GXKxdbZW9Hp5cg-U_LQ1-123">
          <mxGeometry width="50" height="50" relative="1" as="geometry">
            <mxPoint x="-1240" y="-420" as="sourcePoint" />
            <mxPoint x="-1190" y="-470" as="targetPoint" />
          </mxGeometry>
        </mxCell>
        <mxCell id="GXKxdbZW9Hp5cg-U_LQ1-129" style="edgeStyle=orthogonalEdgeStyle;rounded=0;orthogonalLoop=1;jettySize=auto;html=1;exitX=0.5;exitY=1;exitDx=0;exitDy=0;" edge="1" parent="1">
          <mxGeometry relative="1" as="geometry">
            <mxPoint x="-295" y="-530" as="sourcePoint" />
            <mxPoint x="-295" y="-530" as="targetPoint" />
          </mxGeometry>
        </mxCell>
        <mxCell id="GXKxdbZW9Hp5cg-U_LQ1-130" value="" style="endArrow=none;html=1;rounded=0;entryX=0;entryY=0.5;entryDx=0;entryDy=0;exitX=1;exitY=0;exitDx=0;exitDy=0;" edge="1" parent="1" source="GXKxdbZW9Hp5cg-U_LQ1-121" target="GXKxdbZW9Hp5cg-U_LQ1-122">
          <mxGeometry width="50" height="50" relative="1" as="geometry">
            <mxPoint x="-1340" y="-500" as="sourcePoint" />
            <mxPoint x="-1294" y="-557" as="targetPoint" />
          </mxGeometry>
        </mxCell>
        <mxCell id="GXKxdbZW9Hp5cg-U_LQ1-131" value="Correo" style="ellipse;shape=doubleEllipse;margin=3;whiteSpace=wrap;html=1;align=center;" vertex="1" parent="1">
          <mxGeometry x="-1496" y="-580" width="70" height="40" as="geometry" />
        </mxCell>
        <mxCell id="GXKxdbZW9Hp5cg-U_LQ1-132" value="Telefono" style="ellipse;shape=doubleEllipse;margin=3;whiteSpace=wrap;html=1;align=center;" vertex="1" parent="1">
          <mxGeometry x="-1500" y="-530" width="70" height="40" as="geometry" />
        </mxCell>
        <mxCell id="GXKxdbZW9Hp5cg-U_LQ1-133" value="Género" style="ellipse;whiteSpace=wrap;html=1;align=center;" vertex="1" parent="1">
          <mxGeometry x="-1417.5" y="-595" width="70" height="30" as="geometry" />
        </mxCell>
        <mxCell id="GXKxdbZW9Hp5cg-U_LQ1-134" value="" style="endArrow=none;html=1;rounded=0;exitX=1;exitY=0.5;exitDx=0;exitDy=0;entryX=0;entryY=0.75;entryDx=0;entryDy=0;" edge="1" parent="1" source="GXKxdbZW9Hp5cg-U_LQ1-132" target="GXKxdbZW9Hp5cg-U_LQ1-120">
          <mxGeometry width="50" height="50" relative="1" as="geometry">
            <mxPoint x="-1440" y="-380" as="sourcePoint" />
            <mxPoint x="-1390" y="-430" as="targetPoint" />
          </mxGeometry>
        </mxCell>
        <mxCell id="GXKxdbZW9Hp5cg-U_LQ1-135" value="" style="endArrow=none;html=1;rounded=0;exitX=1;exitY=0.5;exitDx=0;exitDy=0;entryX=0;entryY=0.25;entryDx=0;entryDy=0;" edge="1" parent="1" source="GXKxdbZW9Hp5cg-U_LQ1-131" target="GXKxdbZW9Hp5cg-U_LQ1-120">
          <mxGeometry width="50" height="50" relative="1" as="geometry">
            <mxPoint x="-1440" y="-445" as="sourcePoint" />
            <mxPoint x="-1390" y="-470" as="targetPoint" />
          </mxGeometry>
        </mxCell>
        <mxCell id="GXKxdbZW9Hp5cg-U_LQ1-136" value="" style="endArrow=none;html=1;rounded=0;exitX=0.25;exitY=0;exitDx=0;exitDy=0;entryX=0.5;entryY=1;entryDx=0;entryDy=0;" edge="1" parent="1" source="GXKxdbZW9Hp5cg-U_LQ1-120" target="GXKxdbZW9Hp5cg-U_LQ1-133">
          <mxGeometry width="50" height="50" relative="1" as="geometry">
            <mxPoint x="-1430" y="-435" as="sourcePoint" />
            <mxPoint x="-1380" y="-460" as="targetPoint" />
          </mxGeometry>
        </mxCell>
        <mxCell id="GXKxdbZW9Hp5cg-U_LQ1-137" style="rounded=0;orthogonalLoop=1;jettySize=auto;html=1;exitX=0;exitY=0;exitDx=0;exitDy=0;entryX=1;entryY=1;entryDx=0;entryDy=0;endArrow=none;endFill=0;" edge="1" parent="1" source="GXKxdbZW9Hp5cg-U_LQ1-140" target="GXKxdbZW9Hp5cg-U_LQ1-192">
          <mxGeometry relative="1" as="geometry" />
        </mxCell>
        <mxCell id="GXKxdbZW9Hp5cg-U_LQ1-138" style="rounded=0;orthogonalLoop=1;jettySize=auto;html=1;exitX=0;exitY=0.5;exitDx=0;exitDy=0;entryX=1;entryY=0.5;entryDx=0;entryDy=0;endArrow=none;endFill=0;" edge="1" parent="1" source="GXKxdbZW9Hp5cg-U_LQ1-140" target="GXKxdbZW9Hp5cg-U_LQ1-194">
          <mxGeometry relative="1" as="geometry" />
        </mxCell>
        <mxCell id="GXKxdbZW9Hp5cg-U_LQ1-139" style="rounded=0;orthogonalLoop=1;jettySize=auto;html=1;exitX=1;exitY=1;exitDx=0;exitDy=0;entryX=0;entryY=0.5;entryDx=0;entryDy=0;endArrow=none;endFill=0;" edge="1" parent="1" source="GXKxdbZW9Hp5cg-U_LQ1-140" target="GXKxdbZW9Hp5cg-U_LQ1-207">
          <mxGeometry relative="1" as="geometry" />
        </mxCell>
        <mxCell id="GXKxdbZW9Hp5cg-U_LQ1-140" value="Evento" style="whiteSpace=wrap;html=1;align=center;" vertex="1" parent="1">
          <mxGeometry x="-1040" y="-520" width="100" height="40" as="geometry" />
        </mxCell>
        <mxCell id="GXKxdbZW9Hp5cg-U_LQ1-141" value="Fecha" style="ellipse;whiteSpace=wrap;html=1;align=center;" vertex="1" parent="1">
          <mxGeometry x="-1058" y="-590" width="60" height="40" as="geometry" />
        </mxCell>
        <mxCell id="GXKxdbZW9Hp5cg-U_LQ1-142" value="TipoEvento" style="ellipse;whiteSpace=wrap;html=1;align=center;" vertex="1" parent="1">
          <mxGeometry x="-992.5" y="-587.5" width="80" height="35" as="geometry" />
        </mxCell>
        <mxCell id="GXKxdbZW9Hp5cg-U_LQ1-143" value="Capacidad" style="ellipse;whiteSpace=wrap;html=1;align=center;" vertex="1" parent="1">
          <mxGeometry x="-912.5" y="-570" width="70" height="40" as="geometry" />
        </mxCell>
        <mxCell id="GXKxdbZW9Hp5cg-U_LQ1-144" value="" style="endArrow=none;html=1;rounded=0;entryX=0.5;entryY=1;entryDx=0;entryDy=0;exitX=0.25;exitY=0;exitDx=0;exitDy=0;" edge="1" parent="1" source="GXKxdbZW9Hp5cg-U_LQ1-140" target="GXKxdbZW9Hp5cg-U_LQ1-141">
          <mxGeometry width="50" height="50" relative="1" as="geometry">
            <mxPoint x="-1190" y="-370" as="sourcePoint" />
            <mxPoint x="-1140" y="-420" as="targetPoint" />
          </mxGeometry>
        </mxCell>
        <mxCell id="GXKxdbZW9Hp5cg-U_LQ1-145" value="" style="endArrow=none;html=1;rounded=0;entryX=0.5;entryY=1;entryDx=0;entryDy=0;exitX=0.75;exitY=0;exitDx=0;exitDy=0;" edge="1" parent="1" source="GXKxdbZW9Hp5cg-U_LQ1-140" target="GXKxdbZW9Hp5cg-U_LQ1-142">
          <mxGeometry width="50" height="50" relative="1" as="geometry">
            <mxPoint x="-997" y="-484" as="sourcePoint" />
            <mxPoint x="-1030" y="-540" as="targetPoint" />
          </mxGeometry>
        </mxCell>
        <mxCell id="GXKxdbZW9Hp5cg-U_LQ1-146" value="" style="endArrow=none;html=1;rounded=0;entryX=0;entryY=1;entryDx=0;entryDy=0;exitX=1;exitY=0;exitDx=0;exitDy=0;" edge="1" parent="1" source="GXKxdbZW9Hp5cg-U_LQ1-140" target="GXKxdbZW9Hp5cg-U_LQ1-143">
          <mxGeometry width="50" height="50" relative="1" as="geometry">
            <mxPoint x="-987" y="-474" as="sourcePoint" />
            <mxPoint x="-1020" y="-530" as="targetPoint" />
          </mxGeometry>
        </mxCell>
        <mxCell id="GXKxdbZW9Hp5cg-U_LQ1-147" value="" style="endArrow=none;html=1;rounded=0;entryX=1;entryY=0.5;entryDx=0;entryDy=0;exitX=0;exitY=0.5;exitDx=0;exitDy=0;" edge="1" parent="1" source="GXKxdbZW9Hp5cg-U_LQ1-193" target="GXKxdbZW9Hp5cg-U_LQ1-140">
          <mxGeometry width="50" height="50" relative="1" as="geometry">
            <mxPoint x="-893.4000000000001" y="-475" as="sourcePoint" />
            <mxPoint x="-1010" y="-520" as="targetPoint" />
          </mxGeometry>
        </mxCell>
        <mxCell id="GXKxdbZW9Hp5cg-U_LQ1-148" style="rounded=0;orthogonalLoop=1;jettySize=auto;html=1;exitX=0.5;exitY=1;exitDx=0;exitDy=0;entryX=0;entryY=0.5;entryDx=0;entryDy=0;endArrow=none;endFill=0;" edge="1" parent="1" source="GXKxdbZW9Hp5cg-U_LQ1-149" target="GXKxdbZW9Hp5cg-U_LQ1-208">
          <mxGeometry relative="1" as="geometry" />
        </mxCell>
        <mxCell id="GXKxdbZW9Hp5cg-U_LQ1-149" value="Asistir" style="shape=rhombus;perimeter=rhombusPerimeter;whiteSpace=wrap;html=1;align=center;" vertex="1" parent="1">
          <mxGeometry x="-1230" y="-470" width="120" height="60" as="geometry" />
        </mxCell>
        <mxCell id="GXKxdbZW9Hp5cg-U_LQ1-150" value="" style="endArrow=none;html=1;rounded=0;entryX=0.75;entryY=1;entryDx=0;entryDy=0;exitX=0;exitY=0.5;exitDx=0;exitDy=0;edgeStyle=orthogonalEdgeStyle;" edge="1" parent="1" source="GXKxdbZW9Hp5cg-U_LQ1-149" target="GXKxdbZW9Hp5cg-U_LQ1-120">
          <mxGeometry width="50" height="50" relative="1" as="geometry">
            <mxPoint x="-1350" y="-350" as="sourcePoint" />
            <mxPoint x="-1300" y="-400" as="targetPoint" />
          </mxGeometry>
        </mxCell>
        <mxCell id="GXKxdbZW9Hp5cg-U_LQ1-151" style="rounded=0;orthogonalLoop=1;jettySize=auto;html=1;exitX=0.25;exitY=0;exitDx=0;exitDy=0;entryX=1;entryY=1;entryDx=0;entryDy=0;endArrow=none;endFill=0;" edge="1" parent="1" target="GXKxdbZW9Hp5cg-U_LQ1-195">
          <mxGeometry relative="1" as="geometry">
            <mxPoint x="-1480" y="-300" as="targetPoint" />
            <mxPoint x="-1445" y="-267.5" as="sourcePoint" />
          </mxGeometry>
        </mxCell>
        <mxCell id="GXKxdbZW9Hp5cg-U_LQ1-152" style="rounded=0;orthogonalLoop=1;jettySize=auto;html=1;exitX=0;exitY=0.5;exitDx=0;exitDy=0;entryX=1;entryY=0.5;entryDx=0;entryDy=0;endArrow=none;endFill=0;" edge="1" parent="1" source="GXKxdbZW9Hp5cg-U_LQ1-199" target="GXKxdbZW9Hp5cg-U_LQ1-197">
          <mxGeometry relative="1" as="geometry">
            <mxPoint x="-1470" y="-247.5" as="sourcePoint" />
          </mxGeometry>
        </mxCell>
        <mxCell id="GXKxdbZW9Hp5cg-U_LQ1-153" value="Fecha" style="ellipse;whiteSpace=wrap;html=1;align=center;" vertex="1" parent="1">
          <mxGeometry x="-1570" y="-210" width="70" height="40" as="geometry" />
        </mxCell>
        <mxCell id="GXKxdbZW9Hp5cg-U_LQ1-154" value="CostoT" style="ellipse;whiteSpace=wrap;html=1;align=center;dashed=1;" vertex="1" parent="1">
          <mxGeometry x="-1500" y="-192.5" width="60" height="45" as="geometry" />
        </mxCell>
        <mxCell id="GXKxdbZW9Hp5cg-U_LQ1-155" value="" style="endArrow=none;html=1;rounded=0;entryX=0;entryY=0.25;entryDx=0;entryDy=0;exitX=1;exitY=0.5;exitDx=0;exitDy=0;" edge="1" parent="1" source="GXKxdbZW9Hp5cg-U_LQ1-200" target="GXKxdbZW9Hp5cg-U_LQ1-199">
          <mxGeometry width="50" height="50" relative="1" as="geometry">
            <mxPoint x="-1520" y="-292.5" as="sourcePoint" />
            <mxPoint x="-1470" y="-257.5" as="targetPoint" />
          </mxGeometry>
        </mxCell>
        <mxCell id="GXKxdbZW9Hp5cg-U_LQ1-156" value="" style="endArrow=none;html=1;rounded=0;exitX=1;exitY=0.5;exitDx=0;exitDy=0;entryX=0;entryY=0.75;entryDx=0;entryDy=0;" edge="1" parent="1" source="GXKxdbZW9Hp5cg-U_LQ1-153" target="GXKxdbZW9Hp5cg-U_LQ1-199">
          <mxGeometry width="50" height="50" relative="1" as="geometry">
            <mxPoint x="-1500" y="-142.5" as="sourcePoint" />
            <mxPoint x="-1470" y="-237.5" as="targetPoint" />
          </mxGeometry>
        </mxCell>
        <mxCell id="GXKxdbZW9Hp5cg-U_LQ1-157" value="" style="endArrow=none;html=1;rounded=0;exitX=1;exitY=0;exitDx=0;exitDy=0;entryX=0.25;entryY=1;entryDx=0;entryDy=0;" edge="1" parent="1" source="GXKxdbZW9Hp5cg-U_LQ1-154" target="GXKxdbZW9Hp5cg-U_LQ1-199">
          <mxGeometry width="50" height="50" relative="1" as="geometry">
            <mxPoint x="-1490" y="-142.5" as="sourcePoint" />
            <mxPoint x="-1445" y="-227.5" as="targetPoint" />
          </mxGeometry>
        </mxCell>
        <mxCell id="GXKxdbZW9Hp5cg-U_LQ1-158" style="edgeStyle=orthogonalEdgeStyle;rounded=0;orthogonalLoop=1;jettySize=auto;html=1;exitX=0.5;exitY=0;exitDx=0;exitDy=0;entryX=0.25;entryY=1;entryDx=0;entryDy=0;endArrow=block;endFill=1;" edge="1" parent="1" source="GXKxdbZW9Hp5cg-U_LQ1-198" target="GXKxdbZW9Hp5cg-U_LQ1-120">
          <mxGeometry relative="1" as="geometry">
            <mxPoint x="-1420" y="-395" as="sourcePoint" />
            <Array as="points">
              <mxPoint x="-1420" y="-440" />
              <mxPoint x="-1375" y="-440" />
            </Array>
          </mxGeometry>
        </mxCell>
        <mxCell id="GXKxdbZW9Hp5cg-U_LQ1-159" value="Relacionar" style="shape=rhombus;perimeter=rhombusPerimeter;whiteSpace=wrap;html=1;align=center;" vertex="1" parent="1">
          <mxGeometry x="-1480" y="-155" width="120" height="60" as="geometry" />
        </mxCell>
        <mxCell id="GXKxdbZW9Hp5cg-U_LQ1-160" value="" style="endArrow=none;html=1;rounded=0;entryX=0.5;entryY=1;entryDx=0;entryDy=0;exitX=1;exitY=0.5;exitDx=0;exitDy=0;edgeStyle=orthogonalEdgeStyle;shape=link;" edge="1" parent="1" source="GXKxdbZW9Hp5cg-U_LQ1-149" target="GXKxdbZW9Hp5cg-U_LQ1-140">
          <mxGeometry width="50" height="50" relative="1" as="geometry">
            <mxPoint x="-1110" y="-340" as="sourcePoint" />
            <mxPoint x="-1060" y="-390" as="targetPoint" />
          </mxGeometry>
        </mxCell>
        <mxCell id="GXKxdbZW9Hp5cg-U_LQ1-161" value="" style="endArrow=none;html=1;rounded=0;entryX=0.5;entryY=1;entryDx=0;entryDy=0;exitX=0.5;exitY=0;exitDx=0;exitDy=0;shape=link;" edge="1" parent="1">
          <mxGeometry width="50" height="50" relative="1" as="geometry">
            <mxPoint x="-1420" y="-267.5" as="sourcePoint" />
            <mxPoint x="-1420" y="-335" as="targetPoint" />
          </mxGeometry>
        </mxCell>
        <mxCell id="GXKxdbZW9Hp5cg-U_LQ1-162" value="" style="endArrow=block;html=1;rounded=0;exitX=1;exitY=0.5;exitDx=0;exitDy=0;entryX=0;entryY=0.5;entryDx=0;entryDy=0;endFill=1;" edge="1" parent="1" source="GXKxdbZW9Hp5cg-U_LQ1-159" target="GXKxdbZW9Hp5cg-U_LQ1-67">
          <mxGeometry width="50" height="50" relative="1" as="geometry">
            <mxPoint x="-1350" as="sourcePoint" />
            <mxPoint x="-1300" y="-50" as="targetPoint" />
          </mxGeometry>
        </mxCell>
        <mxCell id="GXKxdbZW9Hp5cg-U_LQ1-163" value="" style="endArrow=none;html=1;rounded=0;entryX=0.5;entryY=1;entryDx=0;entryDy=0;shape=link;" edge="1" parent="1" source="GXKxdbZW9Hp5cg-U_LQ1-159">
          <mxGeometry width="50" height="50" relative="1" as="geometry">
            <mxPoint x="-1420" y="-150" as="sourcePoint" />
            <mxPoint x="-1420" y="-227.5" as="targetPoint" />
          </mxGeometry>
        </mxCell>
        <mxCell id="GXKxdbZW9Hp5cg-U_LQ1-164" value="PorcentajeDesc" style="ellipse;whiteSpace=wrap;html=1;align=center;" vertex="1" parent="1">
          <mxGeometry x="-1380.5" y="-345" width="100.5" height="50" as="geometry" />
        </mxCell>
        <mxCell id="GXKxdbZW9Hp5cg-U_LQ1-165" value="" style="endArrow=none;html=1;rounded=0;exitX=0;exitY=1;exitDx=0;exitDy=0;entryX=0.75;entryY=0;entryDx=0;entryDy=0;" edge="1" parent="1" source="GXKxdbZW9Hp5cg-U_LQ1-164" target="GXKxdbZW9Hp5cg-U_LQ1-199">
          <mxGeometry width="50" height="50" relative="1" as="geometry">
            <mxPoint x="-1470" y="-370" as="sourcePoint" />
            <mxPoint x="-1467" y="-372" as="targetPoint" />
          </mxGeometry>
        </mxCell>
        <mxCell id="GXKxdbZW9Hp5cg-U_LQ1-166" value="d" style="text;html=1;strokeColor=none;fillColor=none;align=center;verticalAlign=middle;whiteSpace=wrap;rounded=0;" vertex="1" parent="1">
          <mxGeometry x="-1213" y="487.5" width="60" height="30" as="geometry" />
        </mxCell>
        <mxCell id="GXKxdbZW9Hp5cg-U_LQ1-167" value="TipoBioma" style="ellipse;whiteSpace=wrap;html=1;align=center;fontStyle=0;" vertex="1" parent="1">
          <mxGeometry x="-1227" y="-290" width="80" height="40" as="geometry" />
        </mxCell>
        <mxCell id="GXKxdbZW9Hp5cg-U_LQ1-168" value="Nombre" style="ellipse;whiteSpace=wrap;html=1;align=center;fontStyle=0;" vertex="1" parent="1">
          <mxGeometry x="-920" y="260" width="70" height="40" as="geometry" />
        </mxCell>
        <mxCell id="GXKxdbZW9Hp5cg-U_LQ1-169" value="Nombre" style="ellipse;whiteSpace=wrap;html=1;align=center;fontStyle=0;" vertex="1" parent="1">
          <mxGeometry x="-1326" y="330" width="70" height="40" as="geometry" />
        </mxCell>
        <mxCell id="GXKxdbZW9Hp5cg-U_LQ1-170" value="RFC" style="ellipse;whiteSpace=wrap;html=1;align=center;fontStyle=4;" vertex="1" parent="1">
          <mxGeometry x="-670" y="-330" width="77" height="35" as="geometry" />
        </mxCell>
        <mxCell id="GXKxdbZW9Hp5cg-U_LQ1-171" value="Telefonos" style="ellipse;shape=doubleEllipse;margin=3;whiteSpace=wrap;html=1;align=center;" vertex="1" parent="1">
          <mxGeometry x="-667.5" y="-535" width="80" height="50" as="geometry" />
        </mxCell>
        <mxCell id="GXKxdbZW9Hp5cg-U_LQ1-172" style="edgeStyle=orthogonalEdgeStyle;rounded=0;orthogonalLoop=1;jettySize=auto;html=1;exitX=1;exitY=0.5;exitDx=0;exitDy=0;entryX=0;entryY=0.5;entryDx=0;entryDy=0;endArrow=none;endFill=0;" edge="1" parent="1" source="GXKxdbZW9Hp5cg-U_LQ1-173" target="GXKxdbZW9Hp5cg-U_LQ1-30">
          <mxGeometry relative="1" as="geometry" />
        </mxCell>
        <mxCell id="GXKxdbZW9Hp5cg-U_LQ1-173" value="Trabajar" style="shape=rhombus;perimeter=rhombusPerimeter;whiteSpace=wrap;html=1;align=center;" vertex="1" parent="1">
          <mxGeometry x="-950" y="-90" width="120" height="60" as="geometry" />
        </mxCell>
        <mxCell id="GXKxdbZW9Hp5cg-U_LQ1-174" style="edgeStyle=orthogonalEdgeStyle;rounded=0;orthogonalLoop=1;jettySize=auto;html=1;exitX=0;exitY=0.5;exitDx=0;exitDy=0;shape=link;entryX=0;entryY=0.5;entryDx=0;entryDy=0;" edge="1" parent="1" source="GXKxdbZW9Hp5cg-U_LQ1-175" target="GXKxdbZW9Hp5cg-U_LQ1-176">
          <mxGeometry relative="1" as="geometry">
            <Array as="points">
              <mxPoint x="-915" y="-120" />
            </Array>
            <mxPoint x="-1110" y="-90" as="targetPoint" />
          </mxGeometry>
        </mxCell>
        <mxCell id="GXKxdbZW9Hp5cg-U_LQ1-175" value="Laborar" style="shape=rhombus;perimeter=rhombusPerimeter;whiteSpace=wrap;html=1;align=center;" vertex="1" parent="1">
          <mxGeometry x="-912.5" y="-170" width="120" height="60" as="geometry" />
        </mxCell>
        <mxCell id="GXKxdbZW9Hp5cg-U_LQ1-176" value="" style="triangle;whiteSpace=wrap;html=1;rotation=-180;" vertex="1" parent="1">
          <mxGeometry x="-1110" y="-125" width="10" height="10" as="geometry" />
        </mxCell>
        <mxCell id="GXKxdbZW9Hp5cg-U_LQ1-177" value="NumVeterinarios" style="ellipse;whiteSpace=wrap;html=1;align=center;dashed=1;" vertex="1" parent="1">
          <mxGeometry x="-1329" y="-235" width="90" height="45" as="geometry" />
        </mxCell>
        <mxCell id="GXKxdbZW9Hp5cg-U_LQ1-178" value="Alimentacion" style="ellipse;shape=doubleEllipse;margin=3;whiteSpace=wrap;html=1;align=center;" vertex="1" parent="1">
          <mxGeometry x="-582.5" y="320" width="80" height="50" as="geometry" />
        </mxCell>
        <mxCell id="GXKxdbZW9Hp5cg-U_LQ1-179" style="edgeStyle=orthogonalEdgeStyle;rounded=0;orthogonalLoop=1;jettySize=auto;html=1;exitX=0.5;exitY=1;exitDx=0;exitDy=0;" edge="1" parent="1" source="GXKxdbZW9Hp5cg-U_LQ1-178" target="GXKxdbZW9Hp5cg-U_LQ1-178">
          <mxGeometry relative="1" as="geometry" />
        </mxCell>
        <mxCell id="GXKxdbZW9Hp5cg-U_LQ1-180" value="Correo" style="ellipse;shape=doubleEllipse;margin=3;whiteSpace=wrap;html=1;align=center;" vertex="1" parent="1">
          <mxGeometry x="-735" y="-490" width="80" height="50" as="geometry" />
        </mxCell>
        <mxCell id="GXKxdbZW9Hp5cg-U_LQ1-181" style="rounded=0;orthogonalLoop=1;jettySize=auto;html=1;exitX=1;exitY=0.5;exitDx=0;exitDy=0;entryX=0;entryY=0.25;entryDx=0;entryDy=0;endArrow=none;endFill=0;" edge="1" parent="1" source="GXKxdbZW9Hp5cg-U_LQ1-182" target="GXKxdbZW9Hp5cg-U_LQ1-67">
          <mxGeometry relative="1" as="geometry" />
        </mxCell>
        <mxCell id="GXKxdbZW9Hp5cg-U_LQ1-182" value="IdBioma" style="ellipse;whiteSpace=wrap;html=1;align=center;fontStyle=4" vertex="1" parent="1">
          <mxGeometry x="-1334" y="-182.5" width="90" height="45" as="geometry" />
        </mxCell>
        <mxCell id="GXKxdbZW9Hp5cg-U_LQ1-183" value="&lt;u&gt;IdAnimal&lt;/u&gt;" style="ellipse;whiteSpace=wrap;html=1;align=center;fontStyle=0;" vertex="1" parent="1">
          <mxGeometry x="-900" y="210" width="70" height="40" as="geometry" />
        </mxCell>
        <mxCell id="GXKxdbZW9Hp5cg-U_LQ1-184" value="" style="endArrow=none;html=1;rounded=0;exitX=0.75;exitY=0;exitDx=0;exitDy=0;edgeStyle=orthogonalEdgeStyle;shape=link;entryX=0.5;entryY=1;entryDx=0;entryDy=0;" edge="1" parent="1" source="GXKxdbZW9Hp5cg-U_LQ1-64" target="GXKxdbZW9Hp5cg-U_LQ1-95">
          <mxGeometry width="50" height="50" relative="1" as="geometry">
            <mxPoint x="-785" y="210" as="sourcePoint" />
            <mxPoint x="-550" y="80" as="targetPoint" />
            <Array as="points">
              <mxPoint x="-718" y="140" />
              <mxPoint x="-527" y="140" />
              <mxPoint x="-527" y="70" />
            </Array>
          </mxGeometry>
        </mxCell>
        <mxCell id="GXKxdbZW9Hp5cg-U_LQ1-185" value="Refigeracion" style="ellipse;whiteSpace=wrap;html=1;align=center;fontStyle=0;" vertex="1" parent="1">
          <mxGeometry x="-1353" y="375" width="80" height="45" as="geometry" />
        </mxCell>
        <mxCell id="GXKxdbZW9Hp5cg-U_LQ1-186" style="rounded=0;orthogonalLoop=1;jettySize=auto;html=1;exitX=1;exitY=0.5;exitDx=0;exitDy=0;entryX=0;entryY=0.5;entryDx=0;entryDy=0;endArrow=none;endFill=0;" edge="1" parent="1" source="GXKxdbZW9Hp5cg-U_LQ1-185" target="GXKxdbZW9Hp5cg-U_LQ1-69">
          <mxGeometry relative="1" as="geometry" />
        </mxCell>
        <mxCell id="GXKxdbZW9Hp5cg-U_LQ1-187" style="rounded=0;orthogonalLoop=1;jettySize=auto;html=1;exitX=1;exitY=0.5;exitDx=0;exitDy=0;entryX=0;entryY=1;entryDx=0;entryDy=0;endArrow=none;endFill=0;fontStyle=4" edge="1" parent="1" source="GXKxdbZW9Hp5cg-U_LQ1-188" target="GXKxdbZW9Hp5cg-U_LQ1-69">
          <mxGeometry relative="1" as="geometry" />
        </mxCell>
        <mxCell id="GXKxdbZW9Hp5cg-U_LQ1-188" value="IdInsumo" style="ellipse;whiteSpace=wrap;html=1;align=center;fontStyle=4;" vertex="1" parent="1">
          <mxGeometry x="-1348" y="422.5" width="80" height="45" as="geometry" />
        </mxCell>
        <mxCell id="GXKxdbZW9Hp5cg-U_LQ1-189" style="edgeStyle=orthogonalEdgeStyle;rounded=0;orthogonalLoop=1;jettySize=auto;html=1;exitX=0.5;exitY=0;exitDx=0;exitDy=0;entryX=0.25;entryY=1;entryDx=0;entryDy=0;endArrow=none;endFill=0;shape=link;" edge="1" parent="1" source="GXKxdbZW9Hp5cg-U_LQ1-191" target="GXKxdbZW9Hp5cg-U_LQ1-67">
          <mxGeometry relative="1" as="geometry">
            <Array as="points">
              <mxPoint x="-1185" y="190" />
            </Array>
          </mxGeometry>
        </mxCell>
        <mxCell id="GXKxdbZW9Hp5cg-U_LQ1-190" style="edgeStyle=orthogonalEdgeStyle;rounded=0;orthogonalLoop=1;jettySize=auto;html=1;exitX=0.5;exitY=1;exitDx=0;exitDy=0;entryX=0.5;entryY=0;entryDx=0;entryDy=0;endArrow=none;endFill=0;" edge="1" parent="1" source="GXKxdbZW9Hp5cg-U_LQ1-191" target="GXKxdbZW9Hp5cg-U_LQ1-69">
          <mxGeometry relative="1" as="geometry">
            <mxPoint x="-1186" y="363.5" as="targetPoint" />
          </mxGeometry>
        </mxCell>
        <mxCell id="GXKxdbZW9Hp5cg-U_LQ1-191" value="Distribuir" style="shape=rhombus;perimeter=rhombusPerimeter;whiteSpace=wrap;html=1;align=center;" vertex="1" parent="1">
          <mxGeometry x="-1247" y="190" width="120" height="60" as="geometry" />
        </mxCell>
        <mxCell id="GXKxdbZW9Hp5cg-U_LQ1-192" value="Nombre" style="ellipse;whiteSpace=wrap;html=1;align=center;" vertex="1" parent="1">
          <mxGeometry x="-1110" y="-560" width="60" height="40" as="geometry" />
        </mxCell>
        <mxCell id="GXKxdbZW9Hp5cg-U_LQ1-193" value="ListaAsist" style="ellipse;whiteSpace=wrap;html=1;align=center;dashed=1;" vertex="1" parent="1">
          <mxGeometry x="-900" y="-525" width="70" height="40" as="geometry" />
        </mxCell>
        <mxCell id="GXKxdbZW9Hp5cg-U_LQ1-194" value="IdEvento" style="ellipse;whiteSpace=wrap;html=1;align=center;fontStyle=4" vertex="1" parent="1">
          <mxGeometry x="-1129" y="-520" width="60" height="40" as="geometry" />
        </mxCell>
        <mxCell id="GXKxdbZW9Hp5cg-U_LQ1-195" value="NumTicket" style="ellipse;whiteSpace=wrap;html=1;align=center;fontStyle=0;verticalAlign=middle;horizontal=1;" vertex="1" parent="1">
          <mxGeometry x="-1520" y="-340" width="70" height="50" as="geometry" />
        </mxCell>
        <mxCell id="GXKxdbZW9Hp5cg-U_LQ1-196" value="" style="endArrow=none;html=1;rounded=0;exitX=1;exitY=0.5;exitDx=0;exitDy=0;dashed=1;" edge="1" parent="1">
          <mxGeometry width="50" height="50" relative="1" as="geometry">
            <mxPoint x="-1510" y="-305" as="sourcePoint" />
            <mxPoint x="-1460" y="-305" as="targetPoint" />
          </mxGeometry>
        </mxCell>
        <mxCell id="GXKxdbZW9Hp5cg-U_LQ1-197" value="CostoParcial" style="ellipse;whiteSpace=wrap;html=1;align=center;" vertex="1" parent="1">
          <mxGeometry x="-1610" y="-260" width="80" height="50" as="geometry" />
        </mxCell>
        <mxCell id="GXKxdbZW9Hp5cg-U_LQ1-198" value="Adjuntar" style="shape=rhombus;double=1;perimeter=rhombusPerimeter;whiteSpace=wrap;html=1;align=center;" vertex="1" parent="1">
          <mxGeometry x="-1480" y="-395" width="120" height="60" as="geometry" />
        </mxCell>
        <mxCell id="GXKxdbZW9Hp5cg-U_LQ1-199" value="Ticket" style="shape=ext;margin=3;double=1;whiteSpace=wrap;html=1;align=center;" vertex="1" parent="1">
          <mxGeometry x="-1470" y="-267.5" width="100" height="40" as="geometry" />
        </mxCell>
        <mxCell id="GXKxdbZW9Hp5cg-U_LQ1-200" value="TipoServicio" style="ellipse;shape=doubleEllipse;margin=3;whiteSpace=wrap;html=1;align=center;" vertex="1" parent="1">
          <mxGeometry x="-1600" y="-315" width="80" height="47.5" as="geometry" />
        </mxCell>
        <mxCell id="GXKxdbZW9Hp5cg-U_LQ1-201" value="IdCliente" style="ellipse;whiteSpace=wrap;html=1;fontStyle=4" vertex="1" parent="1">
          <mxGeometry x="-1280.5" y="-530" width="80" height="40" as="geometry" />
        </mxCell>
        <mxCell id="GXKxdbZW9Hp5cg-U_LQ1-202" style="edgeStyle=orthogonalEdgeStyle;rounded=0;orthogonalLoop=1;jettySize=auto;html=1;exitX=0.5;exitY=0;exitDx=0;exitDy=0;entryX=0.5;entryY=1;entryDx=0;entryDy=0;endArrow=none;endFill=0;shape=link;" edge="1" parent="1" source="GXKxdbZW9Hp5cg-U_LQ1-203" target="GXKxdbZW9Hp5cg-U_LQ1-42">
          <mxGeometry relative="1" as="geometry" />
        </mxCell>
        <mxCell id="GXKxdbZW9Hp5cg-U_LQ1-203" value="Proveer" style="shape=rhombus;perimeter=rhombusPerimeter;whiteSpace=wrap;html=1;align=center;" vertex="1" parent="1">
          <mxGeometry x="-290" y="377.5" width="120" height="60" as="geometry" />
        </mxCell>
        <mxCell id="GXKxdbZW9Hp5cg-U_LQ1-204" value="" style="triangle;whiteSpace=wrap;html=1;rotation=-90;" vertex="1" parent="1">
          <mxGeometry x="-1165.8700000000001" y="-105" width="11.75" height="10" as="geometry" />
        </mxCell>
        <mxCell id="GXKxdbZW9Hp5cg-U_LQ1-205" style="rounded=0;orthogonalLoop=1;jettySize=auto;html=1;exitX=1;exitY=0.5;exitDx=0;exitDy=0;entryX=0;entryY=1;entryDx=0;entryDy=0;endArrow=none;endFill=0;" edge="1" parent="1" source="GXKxdbZW9Hp5cg-U_LQ1-206" target="GXKxdbZW9Hp5cg-U_LQ1-120">
          <mxGeometry relative="1" as="geometry" />
        </mxCell>
        <mxCell id="GXKxdbZW9Hp5cg-U_LQ1-206" value="&lt;font style=&quot;font-size: 11px;&quot;&gt;Nacimiento&lt;/font&gt;" style="ellipse;whiteSpace=wrap;html=1;" vertex="1" parent="1">
          <mxGeometry x="-1560" y="-480" width="90" height="50" as="geometry" />
        </mxCell>
        <mxCell id="GXKxdbZW9Hp5cg-U_LQ1-207" value="NumAsistentes" style="ellipse;whiteSpace=wrap;html=1;align=center;" vertex="1" parent="1">
          <mxGeometry x="-920" y="-475" width="100" height="45" as="geometry" />
        </mxCell>
        <mxCell id="GXKxdbZW9Hp5cg-U_LQ1-208" value="tipoNotificacion" style="ellipse;whiteSpace=wrap;html=1;align=center;" vertex="1" parent="1">
          <mxGeometry x="-1114" y="-410" width="100" height="45" as="geometry" />
        </mxCell>
        <mxCell id="GXKxdbZW9Hp5cg-U_LQ1-209" value="&lt;span style=&quot;font-size: 11px;&quot;&gt;ProductoProvee&lt;/span&gt;" style="ellipse;whiteSpace=wrap;html=1;dashed=1;" vertex="1" parent="1">
          <mxGeometry x="-180" y="-140" width="110" height="50" as="geometry" />
        </mxCell>
        <mxCell id="GXKxdbZW9Hp5cg-U_LQ1-210" value="indicacionMedica" style="ellipse;whiteSpace=wrap;html=1;" vertex="1" parent="1">
          <mxGeometry x="-692.5" y="60" width="102.5" height="40" as="geometry" />
        </mxCell>
      </root>
    </mxGraphModel>
  </diagram>
</mxfile>
